   0
SECTION
   2
ENTITIES
   0
3DFACE
   8
Baron schakt
  10
588212.357422
  20
6641872.14661
  30
33
  11
588213.008789
  21
6641871.44214
  31
33
  12
588213.87207
  22
6641871.7063
  32
33
  13
588213.87207
  23
6641871.7063
  33
33
   0
3DFACE
   8
Baron schakt
  10
588212.244141
  20
6641876.07227
  30
33
  11
588210.84375
  21
6641876.61523
  31
33
  12
588210.671875
  22
6641874.72449
  32
33
  13
588210.671875
  23
6641874.72449
  33
33
   0
3DFACE
   8
Baron schakt
  10
588212.244141
  20
6641876.07227
  30
33
  11
588211.960938
  21
6641877.30286
  31
33
  12
588210.84375
  22
6641876.61523
  32
33
  13
588210.84375
  23
6641876.61523
  33
33
   0
3DFACE
   8
Baron schakt
  10
588212.244141
  20
6641876.07227
  30
33
  11
588214.365234
  21
6641875.61597
  31
33
  12
588213.079102
  22
6641877.37708
  32
33
  13
588213.079102
  23
6641877.37708
  33
33
   0
3DFACE
   8
Baron schakt
  10
588212.244141
  20
6641876.07227
  30
33
  11
588213.079102
  21
6641877.37708
  31
33
  12
588211.960938
  22
6641877.30286
  32
33
  13
588211.960938
  23
6641877.30286
  33
33
   0
3DFACE
   8
Baron schakt
  10
588212.620117
  20
6641874.71655
  30
33
  11
588214.365234
  21
6641875.61597
  31
33
  12
588212.244141
  22
6641876.07227
  32
33
  13
588212.244141
  23
6641876.07227
  33
33
   0
3DFACE
   8
Baron schakt
  10
588212.620117
  20
6641874.71655
  30
33
  11
588212.244141
  21
6641876.07227
  31
33
  12
588210.671875
  22
6641874.72449
  32
33
  13
588210.671875
  23
6641874.72449
  33
33
   0
3DFACE
   8
Baron schakt
  10
588213.672852
  20
6641873.52209
  30
33
  11
588213.87207
  21
6641871.7063
  31
33
  12
588215.174805
  22
6641872.85107
  32
33
  13
588215.174805
  23
6641872.85107
  33
33
   0
3DFACE
   8
Baron schakt
  10
588213.672852
  20
6641873.52209
  30
33
  11
588212.357422
  21
6641872.14661
  31
33
  12
588213.87207
  22
6641871.7063
  32
33
  13
588213.87207
  23
6641871.7063
  33
33
   0
3DFACE
   8
Baron schakt
  10
588213.672852
  20
6641873.52209
  30
33
  11
588215.174805
  21
6641872.85107
  31
33
  12
588215.404297
  22
6641873.66113
  32
33
  13
588215.404297
  23
6641873.66113
  33
33
   0
3DFACE
   8
Baron schakt
  10
588213.672852
  20
6641873.52209
  30
33
  11
588215.404297
  21
6641873.66113
  31
33
  12
588214.365234
  22
6641875.61597
  32
33
  13
588214.365234
  23
6641875.61597
  33
33
   0
3DFACE
   8
Baron schakt
  10
588213.672852
  20
6641873.52209
  30
33
  11
588214.365234
  21
6641875.61597
  31
33
  12
588212.620117
  22
6641874.71655
  32
33
  13
588212.620117
  23
6641874.71655
  33
33
   0
3DFACE
   8
Baron schakt
  10
588212.148438
  20
6641873.80774
  30
33
  11
588210.671875
  21
6641874.72449
  31
33
  12
588211.124023
  22
6641873.83728
  32
33
  13
588211.124023
  23
6641873.83728
  33
33
   0
3DFACE
   8
Baron schakt
  10
588212.148438
  20
6641873.80774
  30
33
  11
588212.620117
  21
6641874.71655
  31
33
  12
588210.671875
  22
6641874.72449
  32
33
  13
588210.671875
  23
6641874.72449
  33
33
   0
3DFACE
   8
Baron schakt
  10
588212.148438
  20
6641873.80774
  30
33
  11
588211.124023
  21
6641873.83728
  31
33
  12
588212.357422
  22
6641872.14661
  32
33
  13
588212.357422
  23
6641872.14661
  33
33
   0
3DFACE
   8
Baron schakt
  10
588212.148438
  20
6641873.80774
  30
33
  11
588212.357422
  21
6641872.14661
  31
33
  12
588213.672852
  22
6641873.52209
  32
33
  13
588213.672852
  23
6641873.52209
  33
33
   0
3DFACE
   8
Baron schakt
  10
588212.148438
  20
6641873.80774
  30
33
  11
588213.672852
  21
6641873.52209
  31
33
  12
588212.620117
  22
6641874.71655
  32
33
  13
588212.620117
  23
6641874.71655
  33
33
   0
3DFACE
   8
Baron schakt
  10
588213.353516
  20
6641874.72876
  30
42.9999504089
  11
588213.302734
  21
6641875.5481
  31
43
  12
588212.423828
  22
6641875.50183
  32
42.9998779297
  13
588212.423828
  23
6641875.50183
  33
42.9998779297
   0
3DFACE
   8
Baron schakt
  10
588213.353516
  20
6641874.72876
  30
42.9999504089
  11
588214.458008
  21
6641874.36377
  31
42.9999427795
  12
588214.076172
  22
6641875.2428
  32
43.000038147
  13
588214.076172
  23
6641875.2428
  33
43.000038147
   0
3DFACE
   8
Baron schakt
  10
588213.353516
  20
6641874.72876
  30
42.9999504089
  11
588214.076172
  21
6641875.2428
  31
43.000038147
  12
588213.302734
  22
6641875.5481
  32
43
  13
588213.302734
  23
6641875.5481
  33
43
   0
3DFACE
   8
Baron schakt
  10
588212.631836
  20
6641873.21704
  30
42.9999351501
  11
588212.006836
  21
6641872.77539
  31
43
  12
588212.654297
  22
6641872.55872
  32
42.9998779297
  13
588212.654297
  23
6641872.55872
  33
42.9998779297
   0
3DFACE
   8
Baron schakt
  10
588212.631836
  20
6641873.21704
  30
42.9999351501
  11
588211.822266
  21
6641873.32837
  31
43
  12
588212.006836
  22
6641872.77539
  32
43
  13
588212.006836
  23
6641872.77539
  33
43
   0
3DFACE
   8
Baron schakt
  10
588212.631836
  20
6641873.21704
  30
42.9999351501
  11
588212.654297
  21
6641872.55872
  31
42.9998779297
  12
588213.268555
  22
6641872.57581
  32
42.9998779297
  13
588213.268555
  23
6641872.57581
  33
42.9998779297
   0
3DFACE
   8
Baron schakt
  10
588213.486328
  20
6641873.72754
  30
42.9999427795
  11
588214.036133
  21
6641873.22437
  31
43
  12
588214.49707
  22
6641873.70227
  32
43
  13
588214.49707
  23
6641873.70227
  33
43
   0
3DFACE
   8
Baron schakt
  10
588213.486328
  20
6641873.72754
  30
42.9999427795
  11
588214.49707
  21
6641873.70227
  31
43
  12
588214.458008
  22
6641874.36377
  32
42.9999427795
  13
588214.458008
  23
6641874.36377
  33
42.9999427795
   0
3DFACE
   8
Baron schakt
  10
588213.486328
  20
6641873.72754
  30
42.9999427795
  11
588214.458008
  21
6641874.36377
  31
42.9999427795
  12
588213.353516
  22
6641874.72876
  32
42.9999504089
  13
588213.353516
  23
6641874.72876
  33
42.9999504089
   0
3DFACE
   8
Baron schakt
  10
588213.486328
  20
6641873.72754
  30
42.9999427795
  11
588213.268555
  21
6641872.57581
  31
42.9998779297
  12
588214.036133
  22
6641873.22437
  32
43
  13
588214.036133
  23
6641873.22437
  33
43
   0
3DFACE
   8
Baron schakt
  10
588213.486328
  20
6641873.72754
  30
42.9999427795
  11
588212.631836
  21
6641873.21704
  31
42.9999351501
  12
588213.268555
  22
6641872.57581
  32
42.9998779297
  13
588213.268555
  23
6641872.57581
  33
42.9998779297
   0
3DFACE
   8
Baron schakt
  10
588212.459961
  20
6641874.17334
  30
42.9999198914
  11
588212.423828
  21
6641875.50183
  31
42.9998779297
  12
588211.744141
  22
6641874.85999
  32
43
  13
588211.744141
  23
6641874.85999
  33
43
   0
3DFACE
   8
Baron schakt
  10
588212.459961
  20
6641874.17334
  30
42.9999198914
  11
588213.353516
  21
6641874.72876
  31
42.9999504089
  12
588212.423828
  22
6641875.50183
  32
42.9998779297
  13
588212.423828
  23
6641875.50183
  33
42.9998779297
   0
3DFACE
   8
Baron schakt
  10
588212.459961
  20
6641874.17334
  30
42.9999198914
  11
588211.438477
  21
6641873.98035
  31
42.9997558594
  12
588211.822266
  22
6641873.32837
  32
43
  13
588211.822266
  23
6641873.32837
  33
43
   0
3DFACE
   8
Baron schakt
  10
588212.459961
  20
6641874.17334
  30
42.9999198914
  11
588211.822266
  21
6641873.32837
  31
43
  12
588212.631836
  22
6641873.21704
  32
42.9999351501
  13
588212.631836
  23
6641873.21704
  33
42.9999351501
   0
3DFACE
   8
Baron schakt
  10
588212.459961
  20
6641874.17334
  30
42.9999198914
  11
588211.744141
  21
6641874.85999
  31
43
  12
588211.438477
  22
6641873.98035
  32
42.9997558594
  13
588211.438477
  23
6641873.98035
  33
42.9997558594
   0
3DFACE
   8
Baron schakt
  10
588212.459961
  20
6641874.17334
  30
42.9999198914
  11
588212.631836
  21
6641873.21704
  31
42.9999351501
  12
588213.486328
  22
6641873.72754
  32
42.9999427795
  13
588213.486328
  23
6641873.72754
  33
42.9999427795
   0
3DFACE
   8
Baron schakt
  10
588212.459961
  20
6641874.17334
  30
42.9999198914
  11
588213.486328
  21
6641873.72754
  31
42.9999427795
  12
588213.353516
  22
6641874.72876
  32
42.9999504089
  13
588213.353516
  23
6641874.72876
  33
42.9999504089
   0
3DFACE
   8
Baron schakt
  10
588212.446289
  20
6641871.95166
  30
38
  11
588210.995117
  21
6641871.93335
  31
38
  12
588211.694336
  22
6641871.38184
  32
38
  13
588211.694336
  23
6641871.38184
  33
38
   0
3DFACE
   8
Baron schakt
  10
588211.694336
  20
6641871.38184
  30
38
  11
588210.995117
  21
6641871.93335
  31
38
  12
588211.449219
  22
6641872.00439
  32
36.3333320618
  13
588211.449219
  23
6641872.00439
  33
36.3333320618
   0
3DFACE
   8
Baron schakt
  10
588212.446289
  20
6641871.95166
  30
38
  11
588211.694336
  21
6641871.38184
  31
38
  12
588212.419922
  22
6641871.48999
  32
36.3333320618
  13
588212.419922
  23
6641871.48999
  33
36.3333320618
   0
3DFACE
   8
Baron schakt
  10
588210.855469
  20
6641872.84155
  30
38.000087738
  11
588210.995117
  21
6641871.93335
  31
38
  12
588212.446289
  22
6641871.95166
  32
38
  13
588212.446289
  23
6641871.95166
  33
38
   0
3DFACE
   8
Baron schakt
  10
588210.874023
  20
6641873.62793
  30
38
  11
588210.855469
  21
6641872.84155
  31
38.000087738
  12
588212.446289
  22
6641871.95166
  32
38
  13
588212.446289
  23
6641871.95166
  33
38
   0
3DFACE
   8
Baron schakt
  10
588210.995117
  20
6641871.93335
  30
38
  11
588210.855469
  21
6641872.84155
  31
38.000087738
  12
588211.038086
  22
6641872.56799
  32
36.3333320618
  13
588211.038086
  23
6641872.56799
  33
36.3333320618
   0
3DFACE
   8
Baron schakt
  10
588210.855469
  20
6641872.84155
  30
38.000087738
  11
588210.945313
  21
6641873.17346
  31
36.3333930969
  12
588211.038086
  22
6641872.56799
  32
36.3333320618
  13
588211.038086
  23
6641872.56799
  33
36.3333320618
   0
3DFACE
   8
Baron schakt
  10
588210.995117
  20
6641871.93335
  30
38
  11
588211.038086
  21
6641872.56799
  31
36.3333320618
  12
588211.449219
  22
6641872.00439
  32
36.3333320618
  13
588211.449219
  23
6641872.00439
  33
36.3333320618
   0
3DFACE
   8
Baron schakt
  10
588211.038086
  20
6641872.56799
  30
36.3333320618
  11
588211.90332
  21
6641872.07556
  31
34.6666679382
  12
588211.449219
  22
6641872.00439
  32
36.3333320618
  13
588211.449219
  23
6641872.00439
  33
36.3333320618
   0
3DFACE
   8
Baron schakt
  10
588211.915039
  20
6641871.63672
  30
36.3333320618
  11
588211.449219
  21
6641872.00439
  31
36.3333320618
  12
588211.90332
  22
6641872.07556
  32
34.6666679382
  13
588211.90332
  23
6641872.07556
  33
34.6666679382
   0
3DFACE
   8
Baron schakt
  10
588211.081055
  20
6641873.20264
  30
34.6666679382
  11
588211.90332
  21
6641872.07556
  31
34.6666679382
  12
588211.038086
  22
6641872.56799
  32
36.3333320618
  13
588211.038086
  23
6641872.56799
  33
36.3333320618
   0
3DFACE
   8
Baron schakt
  10
588211.038086
  20
6641872.56799
  30
36.3333320618
  11
588210.945313
  21
6641873.17346
  31
36.3333930969
  12
588211.081055
  22
6641873.20264
  32
34.6666679382
  13
588211.081055
  23
6641873.20264
  33
34.6666679382
   0
3DFACE
   8
Baron schakt
  10
588211.081055
  20
6641873.20264
  30
34.6666679382
  11
588211.124023
  21
6641873.83728
  31
33
  12
588211.90332
  22
6641872.07556
  32
34.6666679382
  13
588211.90332
  23
6641872.07556
  33
34.6666679382
   0
3DFACE
   8
Baron schakt
  10
588211.90332
  20
6641872.07556
  30
34.6666679382
  11
588211.124023
  21
6641873.83728
  31
33
  12
588212.357422
  22
6641872.14661
  32
33
  13
588212.357422
  23
6641872.14661
  33
33
   0
3DFACE
   8
Baron schakt
  10
588211.03418
  20
6641873.50537
  30
34.6666946411
  11
588211.124023
  21
6641873.83728
  31
33
  12
588211.081055
  22
6641873.20264
  32
34.6666679382
  13
588211.081055
  23
6641873.20264
  33
34.6666679382
   0
3DFACE
   8
Baron schakt
  10
588210.945313
  20
6641873.17346
  30
36.3333930969
  11
588211.03418
  21
6641873.50537
  31
34.6666946411
  12
588211.081055
  22
6641873.20264
  32
34.6666679382
  13
588211.081055
  23
6641873.20264
  33
34.6666679382
   0
3DFACE
   8
Baron schakt
  10
588211.03418
  20
6641873.50537
  30
34.6666946411
  11
588210.671875
  21
6641874.72449
  31
33
  12
588211.124023
  22
6641873.83728
  32
33
  13
588211.124023
  23
6641873.83728
  33
33
   0
3DFACE
   8
Baron schakt
  10
588214.365234
  20
6641875.61597
  30
33
  11
588211.124023
  21
6641873.83728
  31
33
  12
588210.671875
  22
6641874.72449
  32
33
  13
588210.671875
  23
6641874.72449
  33
33
   0
3DFACE
   8
Baron schakt
  10
588210.733398
  20
6641874.0968
  30
34.6666946411
  11
588210.671875
  21
6641874.72449
  31
33
  12
588211.03418
  22
6641873.50537
  32
34.6666946411
  13
588211.03418
  23
6641873.50537
  33
34.6666946411
   0
3DFACE
   8
Baron schakt
  10
588210.733398
  20
6641874.0968
  30
34.6666946411
  11
588211.03418
  21
6641873.50537
  31
34.6666946411
  12
588210.793945
  22
6641873.46924
  32
36.3333930969
  13
588210.793945
  23
6641873.46924
  33
36.3333930969
   0
3DFACE
   8
Baron schakt
  10
588210.739258
  20
6641874.35901
  30
34.6666679382
  11
588210.671875
  21
6641874.72449
  31
33
  12
588210.733398
  22
6641874.0968
  32
34.6666946411
  13
588210.733398
  23
6641874.0968
  33
34.6666946411
   0
3DFACE
   8
Baron schakt
  10
588210.806641
  20
6641873.99341
  30
36.3333320618
  11
588210.739258
  21
6641874.35901
  31
34.6666679382
  12
588210.733398
  22
6641874.0968
  32
34.6666946411
  13
588210.733398
  23
6641874.0968
  33
34.6666946411
   0
3DFACE
   8
Baron schakt
  10
588210.842773
  20
6641874.5741
  30
34.6666259766
  11
588210.671875
  21
6641874.72449
  31
33
  12
588210.739258
  22
6641874.35901
  32
34.6666679382
  13
588210.739258
  23
6641874.35901
  33
34.6666679382
   0
3DFACE
   8
Baron schakt
  10
588211.012695
  20
6641874.42383
  30
36.3332519531
  11
588210.842773
  21
6641874.5741
  31
34.6666259766
  12
588210.739258
  22
6641874.35901
  32
34.6666679382
  13
588210.739258
  23
6641874.35901
  33
34.6666679382
   0
3DFACE
   8
Baron schakt
  10
588210.842773
  20
6641874.5741
  30
34.6666259766
  11
588210.84375
  21
6641876.61523
  31
33
  12
588210.671875
  22
6641874.72449
  32
33
  13
588210.671875
  23
6641874.72449
  33
33
   0
3DFACE
   8
Baron schakt
  10
588210.671875
  20
6641874.72449
  30
33
  11
588210.84375
  21
6641876.61523
  31
33
  12
588211.960938
  22
6641877.30286
  32
33
  13
588211.960938
  23
6641877.30286
  33
33
   0
3DFACE
   8
Baron schakt
  10
588210.842773
  20
6641874.5741
  30
34.6666259766
  11
588210.957031
  21
6641875.83459
  31
34.6666259766
  12
588210.84375
  22
6641876.61523
  32
33
  13
588210.84375
  23
6641876.61523
  33
33
   0
3DFACE
   8
Baron schakt
  10
588210.957031
  20
6641875.83459
  30
34.6666259766
  11
588211.960938
  21
6641877.30286
  31
33
  12
588210.84375
  22
6641876.61523
  32
33
  13
588210.84375
  23
6641876.61523
  33
33
   0
3DFACE
   8
Baron schakt
  10
588210.957031
  20
6641875.83459
  30
34.6666259766
  11
588210.842773
  21
6641874.5741
  31
34.6666259766
  12
588211.070313
  22
6641875.05408
  32
36.3332519531
  13
588211.070313
  23
6641875.05408
  33
36.3332519531
   0
3DFACE
   8
Baron schakt
  10
588211.070313
  20
6641875.05408
  30
36.3332519531
  11
588210.842773
  21
6641874.5741
  31
34.6666259766
  12
588211.012695
  22
6641874.42383
  32
36.3332519531
  13
588211.012695
  23
6641874.42383
  33
36.3332519531
   0
3DFACE
   8
Baron schakt
  10
588211.442383
  20
6641875.2832
  30
36.3332519531
  11
588210.957031
  21
6641875.83459
  31
34.6666259766
  12
588211.070313
  22
6641875.05408
  32
36.3332519531
  13
588211.070313
  23
6641875.05408
  33
36.3332519531
   0
3DFACE
   8
Baron schakt
  10
588211.183594
  20
6641874.27344
  30
37.9998779297
  11
588211.442383
  21
6641875.2832
  31
36.3332519531
  12
588211.070313
  22
6641875.05408
  32
36.3332519531
  13
588211.070313
  23
6641875.05408
  33
36.3332519531
   0
3DFACE
   8
Baron schakt
  10
588211.702148
  20
6641876.29309
  30
34.6666259766
  11
588210.957031
  21
6641875.83459
  31
34.6666259766
  12
588211.442383
  22
6641875.2832
  32
36.3332519531
  13
588211.442383
  23
6641875.2832
  33
36.3332519531
   0
3DFACE
   8
Baron schakt
  10
588211.442383
  20
6641875.2832
  30
36.3332519531
  11
588211.955078
  21
6641875.64587
  31
36.3333320618
  12
588211.702148
  22
6641876.29309
  32
34.6666259766
  13
588211.702148
  23
6641876.29309
  33
34.6666259766
   0
3DFACE
   8
Baron schakt
  10
588211.702148
  20
6641876.29309
  30
34.6666259766
  11
588211.960938
  21
6641877.30286
  31
33
  12
588210.957031
  22
6641875.83459
  32
34.6666259766
  13
588210.957031
  23
6641875.83459
  33
34.6666259766
   0
3DFACE
   8
Baron schakt
  10
588211.958008
  20
6641876.47437
  30
34.6666679382
  11
588211.960938
  21
6641877.30286
  31
33
  12
588211.702148
  22
6641876.29309
  32
34.6666259766
  13
588211.702148
  23
6641876.29309
  33
34.6666259766
   0
3DFACE
   8
Baron schakt
  10
588211.955078
  20
6641875.64587
  30
36.3333320618
  11
588211.958008
  21
6641876.47437
  31
34.6666679382
  12
588211.702148
  22
6641876.29309
  32
34.6666259766
  13
588211.702148
  23
6641876.29309
  33
34.6666259766
   0
3DFACE
   8
Baron schakt
  10
588211.958008
  20
6641876.47437
  30
34.6666679382
  11
588213.079102
  21
6641877.37708
  31
33
  12
588211.960938
  22
6641877.30286
  32
33
  13
588211.960938
  23
6641877.30286
  33
33
   0
3DFACE
   8
Baron schakt
  10
588213.079102
  20
6641877.37708
  30
33
  11
588214.365234
  21
6641875.61597
  31
33
  12
588211.960938
  22
6641877.30286
  32
33
  13
588211.960938
  23
6641877.30286
  33
33
   0
3DFACE
   8
Baron schakt
  10
588212.703125
  20
6641876.5238
  30
34.6666679382
  11
588213.079102
  21
6641877.37708
  31
33
  12
588211.958008
  22
6641876.47437
  32
34.6666679382
  13
588211.958008
  23
6641876.47437
  33
34.6666679382
   0
3DFACE
   8
Baron schakt
  10
588212.703125
  20
6641876.5238
  30
34.6666679382
  11
588211.958008
  21
6641876.47437
  31
34.6666679382
  12
588212.328125
  22
6641875.67065
  32
36.3333320618
  13
588212.328125
  23
6641875.67065
  33
36.3333320618
   0
3DFACE
   8
Baron schakt
  10
588212.876953
  20
6641876.58545
  30
34.6667060852
  11
588213.079102
  21
6641877.37708
  31
33
  12
588212.703125
  22
6641876.5238
  32
34.6666679382
  13
588212.703125
  23
6641876.5238
  33
34.6666679382
   0
3DFACE
   8
Baron schakt
  10
588212.673828
  20
6641875.7937
  30
36.3334159851
  11
588212.876953
  21
6641876.58545
  31
34.6667060852
  12
588212.703125
  22
6641876.5238
  32
34.6666679382
  13
588212.703125
  23
6641876.5238
  33
34.6666679382
   0
3DFACE
   8
Baron schakt
  10
588213.734375
  20
6641875.41138
  30
34.6667060852
  11
588213.079102
  21
6641877.37708
  31
33
  12
588212.876953
  22
6641876.58545
  32
34.6667060852
  13
588212.876953
  23
6641876.58545
  33
34.6667060852
   0
3DFACE
   8
Baron schakt
  10
588213.734375
  20
6641875.41138
  30
34.6667060852
  11
588212.876953
  21
6641876.58545
  31
34.6667060852
  12
588212.673828
  22
6641875.7937
  32
36.3334159851
  13
588212.673828
  23
6641875.7937
  33
36.3334159851
   0
3DFACE
   8
Baron schakt
  10
588214.365234
  20
6641875.61597
  30
33
  11
588213.079102
  21
6641877.37708
  31
33
  12
588213.734375
  22
6641875.41138
  32
34.6667060852
  13
588213.734375
  23
6641875.41138
  33
34.6667060852
   0
3DFACE
   8
Baron schakt
  10
588213.999023
  20
6641875.15051
  30
34.6667060852
  11
588214.365234
  21
6641875.61597
  31
33
  12
588213.734375
  22
6641875.41138
  32
34.6667060852
  13
588213.734375
  23
6641875.41138
  33
34.6667060852
   0
3DFACE
   8
Baron schakt
  10
588213.633789
  20
6641874.68506
  30
36.3334159851
  11
588213.999023
  21
6641875.15051
  31
34.6667060852
  12
588213.734375
  22
6641875.41138
  32
34.6667060852
  13
588213.734375
  23
6641875.41138
  33
34.6667060852
   0
3DFACE
   8
Baron schakt
  10
588214.102539
  20
6641874.90393
  30
34.6667060852
  11
588214.365234
  21
6641875.61597
  31
33
  12
588213.999023
  22
6641875.15051
  32
34.6667060852
  13
588213.999023
  23
6641875.15051
  33
34.6667060852
   0
3DFACE
   8
Baron schakt
  10
588213.633789
  20
6641874.68506
  30
36.3334159851
  11
588214.102539
  21
6641874.90393
  31
34.6667060852
  12
588213.999023
  22
6641875.15051
  32
34.6667060852
  13
588213.999023
  23
6641875.15051
  33
34.6667060852
   0
3DFACE
   8
Baron schakt
  10
588214.794922
  20
6641873.60071
  30
34.6667060852
  11
588214.365234
  21
6641875.61597
  31
33
  12
588214.102539
  22
6641874.90393
  32
34.6667060852
  13
588214.102539
  23
6641874.90393
  33
34.6667060852
   0
3DFACE
   8
Baron schakt
  10
588214.794922
  20
6641873.60071
  30
34.6667060852
  11
588214.102539
  21
6641874.90393
  31
34.6667060852
  12
588213.839844
  22
6641874.19202
  32
36.3334159851
  13
588213.839844
  23
6641874.19202
  33
36.3334159851
   0
3DFACE
   8
Baron schakt
  10
588215.404297
  20
6641873.66113
  30
33
  11
588214.365234
  21
6641875.61597
  31
33
  12
588214.794922
  22
6641873.60071
  32
34.6667060852
  13
588214.794922
  23
6641873.60071
  33
34.6667060852
   0
3DFACE
   8
Baron schakt
  10
588214.706055
  20
6641873.27344
  30
34.6666679382
  11
588215.404297
  21
6641873.66113
  31
33
  12
588214.794922
  22
6641873.60071
  32
34.6667060852
  13
588214.794922
  23
6641873.60071
  33
34.6667060852
   0
3DFACE
   8
Baron schakt
  10
588215.404297
  20
6641873.66113
  30
33
  11
588212.357422
  21
6641872.14661
  31
33
  12
588214.365234
  22
6641875.61597
  32
33
  13
588214.365234
  23
6641875.61597
  33
33
   0
3DFACE
   8
Baron schakt
  10
588212.357422
  20
6641872.14661
  30
33
  11
588211.124023
  21
6641873.83728
  31
33
  12
588214.365234
  22
6641875.61597
  32
33
  13
588214.365234
  23
6641875.61597
  33
33
   0
3DFACE
   8
Baron schakt
  10
588215.174805
  20
6641872.85107
  30
33
  11
588212.357422
  21
6641872.14661
  31
33
  12
588215.404297
  22
6641873.66113
  32
33
  13
588215.404297
  23
6641873.66113
  33
33
   0
3DFACE
   8
Baron schakt
  10
588215.174805
  20
6641872.85107
  30
33
  11
588215.404297
  21
6641873.66113
  31
33
  12
588214.552734
  22
6641872.7334
  32
34.6666679382
  13
588214.552734
  23
6641872.7334
  33
34.6666679382
   0
3DFACE
   8
Baron schakt
  10
588215.174805
  20
6641872.85107
  30
33
  11
588213.87207
  21
6641871.7063
  31
33
  12
588212.357422
  22
6641872.14661
  32
33
  13
588212.357422
  23
6641872.14661
  33
33
   0
3DFACE
   8
Baron schakt
  10
588213.87207
  20
6641871.7063
  30
33
  11
588213.008789
  21
6641871.44214
  31
33
  12
588212.357422
  22
6641872.14661
  32
33
  13
588212.357422
  23
6641872.14661
  33
33
   0
3DFACE
   8
Baron schakt
  10
588213.87207
  20
6641871.7063
  30
33
  11
588215.174805
  21
6641872.85107
  31
33
  12
588213.396484
  22
6641871.78809
  32
34.6666679382
  13
588213.396484
  23
6641871.78809
  33
34.6666679382
   0
3DFACE
   8
Baron schakt
  10
588213.396484
  20
6641871.78809
  30
34.6666679382
  11
588215.174805
  21
6641872.85107
  31
33
  12
588214.265625
  22
6641872.55127
  32
34.6666679382
  13
588214.265625
  23
6641872.55127
  33
34.6666679382
   0
3DFACE
   8
Baron schakt
  10
588213.146484
  20
6641871.59814
  30
34.6666679382
  11
588213.87207
  21
6641871.7063
  31
33
  12
588213.396484
  22
6641871.78809
  32
34.6666679382
  13
588213.396484
  23
6641871.78809
  33
34.6666679382
   0
3DFACE
   8
Baron schakt
  10
588212.921875
  20
6641871.86987
  30
36.3333320618
  11
588213.146484
  21
6641871.59814
  31
34.6666679382
  12
588213.396484
  22
6641871.78809
  32
34.6666679382
  13
588213.396484
  23
6641871.78809
  33
34.6666679382
   0
3DFACE
   8
Baron schakt
  10
588213.146484
  20
6641871.59814
  30
34.6666679382
  11
588212.570313
  21
6641871.422
  31
34.6666679382
  12
588213.87207
  22
6641871.7063
  32
33
  13
588213.87207
  23
6641871.7063
  33
33
   0
3DFACE
   8
Baron schakt
  10
588212.570313
  20
6641871.422
  30
34.6666679382
  11
588213.008789
  21
6641871.44214
  31
33
  12
588213.87207
  22
6641871.7063
  32
33
  13
588213.87207
  23
6641871.7063
  33
33
   0
3DFACE
   8
Baron schakt
  10
588212.419922
  20
6641871.48999
  30
36.3333320618
  11
588212.570313
  21
6641871.422
  31
34.6666679382
  12
588213.146484
  22
6641871.59814
  32
34.6666679382
  13
588213.146484
  23
6641871.59814
  33
34.6666679382
   0
3DFACE
   8
Baron schakt
  10
588212.921875
  20
6641871.86987
  30
36.3333320618
  11
588212.419922
  21
6641871.48999
  31
36.3333320618
  12
588213.146484
  22
6641871.59814
  32
34.6666679382
  13
588213.146484
  23
6641871.59814
  33
34.6666679382
   0
3DFACE
   8
Baron schakt
  10
588212.132813
  20
6641871.40198
  30
36.3333320618
  11
588212.570313
  21
6641871.422
  31
34.6666679382
  12
588212.419922
  22
6641871.48999
  32
36.3333320618
  13
588212.419922
  23
6641871.48999
  33
36.3333320618
   0
3DFACE
   8
Baron schakt
  10
588211.694336
  20
6641871.38184
  30
38
  11
588212.132813
  21
6641871.40198
  31
36.3333320618
  12
588212.419922
  22
6641871.48999
  32
36.3333320618
  13
588212.419922
  23
6641871.48999
  33
36.3333320618
   0
3DFACE
   8
Baron schakt
  10
588212.136719
  20
6641871.89172
  30
34.6666679382
  11
588212.570313
  21
6641871.422
  31
34.6666679382
  12
588212.132813
  22
6641871.40198
  32
36.3333320618
  13
588212.132813
  23
6641871.40198
  33
36.3333320618
   0
3DFACE
   8
Baron schakt
  10
588211.915039
  20
6641871.63672
  30
36.3333320618
  11
588212.136719
  21
6641871.89172
  31
34.6666679382
  12
588212.132813
  22
6641871.40198
  32
36.3333320618
  13
588212.132813
  23
6641871.40198
  33
36.3333320618
   0
3DFACE
   8
Baron schakt
  10
588212.136719
  20
6641871.89172
  30
34.6666679382
  11
588212.357422
  21
6641872.14661
  31
33
  12
588212.570313
  22
6641871.422
  32
34.6666679382
  13
588212.570313
  23
6641871.422
  33
34.6666679382
   0
3DFACE
   8
Baron schakt
  10
588212.570313
  20
6641871.422
  30
34.6666679382
  11
588212.357422
  21
6641872.14661
  31
33
  12
588213.008789
  22
6641871.44214
  32
33
  13
588213.008789
  23
6641871.44214
  33
33
   0
3DFACE
   8
Baron schakt
  10
588211.90332
  20
6641872.07556
  30
34.6666679382
  11
588212.357422
  21
6641872.14661
  31
33
  12
588212.136719
  22
6641871.89172
  32
34.6666679382
  13
588212.136719
  23
6641871.89172
  33
34.6666679382
   0
3DFACE
   8
Baron schakt
  10
588211.915039
  20
6641871.63672
  30
36.3333320618
  11
588211.90332
  21
6641872.07556
  31
34.6666679382
  12
588212.136719
  22
6641871.89172
  32
34.6666679382
  13
588212.136719
  23
6641871.89172
  33
34.6666679382
   0
3DFACE
   8
Baron schakt
  10
588211.694336
  20
6641871.38184
  30
38
  11
588211.915039
  21
6641871.63672
  31
36.3333320618
  12
588212.132813
  22
6641871.40198
  32
36.3333320618
  13
588212.132813
  23
6641871.40198
  33
36.3333320618
   0
3DFACE
   8
Baron schakt
  10
588211.694336
  20
6641871.38184
  30
38
  11
588211.449219
  21
6641872.00439
  31
36.3333320618
  12
588211.915039
  22
6641871.63672
  32
36.3333320618
  13
588211.915039
  23
6641871.63672
  33
36.3333320618
   0
3DFACE
   8
Baron schakt
  10
588212.446289
  20
6641871.95166
  30
38
  11
588212.419922
  21
6641871.48999
  31
36.3333320618
  12
588212.921875
  22
6641871.86987
  32
36.3333320618
  13
588212.921875
  23
6641871.86987
  33
36.3333320618
   0
3DFACE
   8
Baron schakt
  10
588212.446289
  20
6641871.95166
  30
38
  11
588212.921875
  21
6641871.86987
  31
36.3333320618
  12
588213.355469
  22
6641872.25146
  32
36.3333320618
  13
588213.355469
  23
6641872.25146
  33
36.3333320618
   0
3DFACE
   8
Baron schakt
  10
588212.921875
  20
6641871.86987
  30
36.3333320618
  11
588213.396484
  21
6641871.78809
  31
34.6666679382
  12
588213.355469
  22
6641872.25146
  32
36.3333320618
  13
588213.355469
  23
6641872.25146
  33
36.3333320618
   0
3DFACE
   8
Baron schakt
  10
588213.308594
  20
6641872.49817
  30
38
  11
588212.446289
  21
6641871.95166
  31
38
  12
588213.355469
  22
6641872.25146
  32
36.3333320618
  13
588213.355469
  23
6641872.25146
  33
36.3333320618
   0
3DFACE
   8
Baron schakt
  10
588213.308594
  20
6641872.49817
  30
38
  11
588213.355469
  21
6641872.25146
  31
36.3333320618
  12
588213.930664
  22
6641872.61584
  32
36.3333320618
  13
588213.930664
  23
6641872.61584
  33
36.3333320618
   0
3DFACE
   8
Baron schakt
  10
588210.874023
  20
6641873.62793
  30
38
  11
588212.446289
  21
6641871.95166
  31
38
  12
588213.308594
  22
6641872.49817
  32
38
  13
588213.308594
  23
6641872.49817
  33
38
   0
3DFACE
   8
Baron schakt
  10
588213.577148
  20
6641873.47998
  30
38.0001220703
  11
588210.874023
  21
6641873.62793
  31
38
  12
588213.308594
  22
6641872.49817
  32
38
  13
588213.308594
  23
6641872.49817
  33
38
   0
3DFACE
   8
Baron schakt
  10
588213.577148
  20
6641873.47998
  30
38.0001220703
  11
588213.308594
  21
6641872.49817
  31
38
  12
588214.006836
  22
6641872.88586
  32
36.3333320618
  13
588214.006836
  23
6641872.88586
  33
36.3333320618
   0
3DFACE
   8
Baron schakt
  10
588213.267578
  20
6641874.2196
  30
38.0001220703
  11
588210.874023
  21
6641873.62793
  31
38
  12
588213.577148
  22
6641873.47998
  32
38.0001220703
  13
588213.577148
  23
6641873.47998
  33
38.0001220703
   0
3DFACE
   8
Baron schakt
  10
588213.267578
  20
6641874.2196
  30
38.0001220703
  11
588213.577148
  21
6641873.47998
  31
38.0001220703
  12
588213.839844
  22
6641874.19202
  32
36.3334159851
  13
588213.839844
  23
6641874.19202
  33
36.3334159851
   0
3DFACE
   8
Baron schakt
  10
588213.267578
  20
6641874.2196
  30
38.0001220703
  11
588211.183594
  21
6641874.27344
  31
37.9998779297
  12
588210.874023
  22
6641873.62793
  32
38
  13
588210.874023
  23
6641873.62793
  33
38
   0
3DFACE
   8
Baron schakt
  10
588210.874023
  20
6641873.62793
  30
38
  11
588211.183594
  21
6641874.27344
  31
37.9998779297
  12
588210.806641
  22
6641873.99341
  32
36.3333320618
  13
588210.806641
  23
6641873.99341
  33
36.3333320618
   0
3DFACE
   8
Baron schakt
  10
588211.952148
  20
6641874.81738
  30
38
  11
588211.183594
  21
6641874.27344
  31
37.9998779297
  12
588213.267578
  22
6641874.2196
  32
38.0001220703
  13
588213.267578
  23
6641874.2196
  33
38.0001220703
   0
3DFACE
   8
Baron schakt
  10
588212.47168
  20
6641875.00208
  30
38.0001220703
  11
588211.952148
  21
6641874.81738
  31
38
  12
588213.267578
  22
6641874.2196
  32
38.0001220703
  13
588213.267578
  23
6641874.2196
  33
38.0001220703
   0
3DFACE
   8
Baron schakt
  10
588211.183594
  20
6641874.27344
  30
37.9998779297
  11
588211.952148
  21
6641874.81738
  31
38
  12
588211.442383
  22
6641875.2832
  32
36.3332519531
  13
588211.442383
  23
6641875.2832
  33
36.3332519531
   0
3DFACE
   8
Baron schakt
  10
588211.952148
  20
6641874.81738
  30
38
  11
588211.955078
  21
6641875.64587
  31
36.3333320618
  12
588211.442383
  22
6641875.2832
  32
36.3332519531
  13
588211.442383
  23
6641875.2832
  33
36.3332519531
   0
3DFACE
   8
Baron schakt
  10
588211.952148
  20
6641874.81738
  30
38
  11
588212.328125
  21
6641875.67065
  31
36.3333320618
  12
588211.955078
  22
6641875.64587
  32
36.3333320618
  13
588211.955078
  23
6641875.64587
  33
36.3333320618
   0
3DFACE
   8
Baron schakt
  10
588212.328125
  20
6641875.67065
  30
36.3333320618
  11
588211.958008
  21
6641876.47437
  31
34.6666679382
  12
588211.955078
  22
6641875.64587
  32
36.3333320618
  13
588211.955078
  23
6641875.64587
  33
36.3333320618
   0
3DFACE
   8
Baron schakt
  10
588211.952148
  20
6641874.81738
  30
38
  11
588212.47168
  21
6641875.00208
  31
38.0001220703
  12
588212.328125
  22
6641875.67065
  32
36.3333320618
  13
588212.328125
  23
6641875.67065
  33
36.3333320618
   0
3DFACE
   8
Baron schakt
  10
588212.47168
  20
6641875.00208
  30
38.0001220703
  11
588212.673828
  21
6641875.7937
  31
36.3334159851
  12
588212.328125
  22
6641875.67065
  32
36.3333320618
  13
588212.328125
  23
6641875.67065
  33
36.3333320618
   0
3DFACE
   8
Baron schakt
  10
588212.328125
  20
6641875.67065
  30
36.3333320618
  11
588212.673828
  21
6641875.7937
  31
36.3334159851
  12
588212.703125
  22
6641876.5238
  32
34.6666679382
  13
588212.703125
  23
6641876.5238
  33
34.6666679382
   0
3DFACE
   8
Baron schakt
  10
588212.47168
  20
6641875.00208
  30
38.0001220703
  11
588213.102539
  21
6641875.20667
  31
36.3334159851
  12
588212.673828
  22
6641875.7937
  32
36.3334159851
  13
588212.673828
  23
6641875.7937
  33
36.3334159851
   0
3DFACE
   8
Baron schakt
  10
588213.102539
  20
6641875.20667
  30
36.3334159851
  11
588213.734375
  21
6641875.41138
  31
34.6667060852
  12
588212.673828
  22
6641875.7937
  32
36.3334159851
  13
588212.673828
  23
6641875.7937
  33
36.3334159851
   0
3DFACE
   8
Baron schakt
  10
588212.47168
  20
6641875.00208
  30
38.0001220703
  11
588213.267578
  21
6641874.2196
  31
38.0001220703
  12
588213.102539
  22
6641875.20667
  32
36.3334159851
  13
588213.102539
  23
6641875.20667
  33
36.3334159851
   0
3DFACE
   8
Baron schakt
  10
588213.267578
  20
6641874.2196
  30
38.0001220703
  11
588213.633789
  21
6641874.68506
  31
36.3334159851
  12
588213.102539
  22
6641875.20667
  32
36.3334159851
  13
588213.102539
  23
6641875.20667
  33
36.3334159851
   0
3DFACE
   8
Baron schakt
  10
588213.102539
  20
6641875.20667
  30
36.3334159851
  11
588213.633789
  21
6641874.68506
  31
36.3334159851
  12
588213.734375
  22
6641875.41138
  32
34.6667060852
  13
588213.734375
  23
6641875.41138
  33
34.6667060852
   0
3DFACE
   8
Baron schakt
  10
588213.267578
  20
6641874.2196
  30
38.0001220703
  11
588213.839844
  21
6641874.19202
  31
36.3334159851
  12
588213.633789
  22
6641874.68506
  32
36.3334159851
  13
588213.633789
  23
6641874.68506
  33
36.3334159851
   0
3DFACE
   8
Baron schakt
  10
588213.633789
  20
6641874.68506
  30
36.3334159851
  11
588213.839844
  21
6641874.19202
  31
36.3334159851
  12
588214.102539
  22
6641874.90393
  32
34.6667060852
  13
588214.102539
  23
6641874.90393
  33
34.6667060852
   0
3DFACE
   8
Baron schakt
  10
588211.183594
  20
6641874.27344
  30
37.9998779297
  11
588211.012695
  21
6641874.42383
  31
36.3332519531
  12
588210.806641
  22
6641873.99341
  32
36.3333320618
  13
588210.806641
  23
6641873.99341
  33
36.3333320618
   0
3DFACE
   8
Baron schakt
  10
588210.874023
  20
6641873.62793
  30
38
  11
588210.806641
  21
6641873.99341
  31
36.3333320618
  12
588210.793945
  22
6641873.46924
  32
36.3333930969
  13
588210.793945
  23
6641873.46924
  33
36.3333930969
   0
3DFACE
   8
Baron schakt
  10
588210.793945
  20
6641873.46924
  30
36.3333930969
  11
588210.806641
  21
6641873.99341
  31
36.3333320618
  12
588210.733398
  22
6641874.0968
  32
34.6666946411
  13
588210.733398
  23
6641874.0968
  33
34.6666946411
   0
3DFACE
   8
Baron schakt
  10
588210.855469
  20
6641872.84155
  30
38.000087738
  11
588210.874023
  21
6641873.62793
  31
38
  12
588210.793945
  22
6641873.46924
  32
36.3333930969
  13
588210.793945
  23
6641873.46924
  33
36.3333930969
   0
3DFACE
   8
Baron schakt
  10
588210.855469
  20
6641872.84155
  30
38.000087738
  11
588210.793945
  21
6641873.46924
  31
36.3333930969
  12
588210.945313
  22
6641873.17346
  32
36.3333930969
  13
588210.945313
  23
6641873.17346
  33
36.3333930969
   0
3DFACE
   8
Baron schakt
  10
588210.793945
  20
6641873.46924
  30
36.3333930969
  11
588211.03418
  21
6641873.50537
  31
34.6666946411
  12
588210.945313
  22
6641873.17346
  32
36.3333930969
  13
588210.945313
  23
6641873.17346
  33
36.3333930969
   0
3DFACE
   8
Baron schakt
  10
588210.806641
  20
6641873.99341
  30
36.3333320618
  11
588211.012695
  21
6641874.42383
  31
36.3332519531
  12
588210.739258
  22
6641874.35901
  32
34.6666679382
  13
588210.739258
  23
6641874.35901
  33
34.6666679382
   0
3DFACE
   8
Baron schakt
  10
588211.183594
  20
6641874.27344
  30
37.9998779297
  11
588211.070313
  21
6641875.05408
  31
36.3332519531
  12
588211.012695
  22
6641874.42383
  32
36.3332519531
  13
588211.012695
  23
6641874.42383
  33
36.3332519531
   0
3DFACE
   8
Baron schakt
  10
588213.577148
  20
6641873.47998
  30
38.0001220703
  11
588214.186523
  21
6641873.54041
  31
36.3334159851
  12
588213.839844
  22
6641874.19202
  32
36.3334159851
  13
588213.839844
  23
6641874.19202
  33
36.3334159851
   0
3DFACE
   8
Baron schakt
  10
588214.186523
  20
6641873.54041
  30
36.3334159851
  11
588214.794922
  21
6641873.60071
  31
34.6667060852
  12
588213.839844
  22
6641874.19202
  32
36.3334159851
  13
588213.839844
  23
6641874.19202
  33
36.3334159851
   0
3DFACE
   8
Baron schakt
  10
588213.577148
  20
6641873.47998
  30
38.0001220703
  11
588214.006836
  21
6641872.88586
  31
36.3333320618
  12
588214.186523
  22
6641873.54041
  32
36.3334159851
  13
588214.186523
  23
6641873.54041
  33
36.3334159851
   0
3DFACE
   8
Baron schakt
  10
588214.186523
  20
6641873.54041
  30
36.3334159851
  11
588214.006836
  21
6641872.88586
  31
36.3333320618
  12
588214.706055
  22
6641873.27344
  32
34.6666679382
  13
588214.706055
  23
6641873.27344
  33
34.6666679382
   0
3DFACE
   8
Baron schakt
  10
588214.552734
  20
6641872.7334
  30
34.6666679382
  11
588214.706055
  21
6641873.27344
  31
34.6666679382
  12
588214.006836
  22
6641872.88586
  32
36.3333320618
  13
588214.006836
  23
6641872.88586
  33
36.3333320618
   0
3DFACE
   8
Baron schakt
  10
588214.186523
  20
6641873.54041
  30
36.3334159851
  11
588214.706055
  21
6641873.27344
  31
34.6666679382
  12
588214.794922
  22
6641873.60071
  32
34.6667060852
  13
588214.794922
  23
6641873.60071
  33
34.6667060852
   0
3DFACE
   8
Baron schakt
  10
588213.930664
  20
6641872.61584
  30
36.3333320618
  11
588214.552734
  21
6641872.7334
  31
34.6666679382
  12
588214.006836
  22
6641872.88586
  32
36.3333320618
  13
588214.006836
  23
6641872.88586
  33
36.3333320618
   0
3DFACE
   8
Baron schakt
  10
588214.552734
  20
6641872.7334
  30
34.6666679382
  11
588215.404297
  21
6641873.66113
  31
33
  12
588214.706055
  22
6641873.27344
  32
34.6666679382
  13
588214.706055
  23
6641873.27344
  33
34.6666679382
   0
3DFACE
   8
Baron schakt
  10
588213.308594
  20
6641872.49817
  30
38
  11
588213.930664
  21
6641872.61584
  31
36.3333320618
  12
588214.006836
  22
6641872.88586
  32
36.3333320618
  13
588214.006836
  23
6641872.88586
  33
36.3333320618
   0
3DFACE
   8
Baron schakt
  10
588213.930664
  20
6641872.61584
  30
36.3333320618
  11
588214.265625
  21
6641872.55127
  31
34.6666679382
  12
588214.552734
  22
6641872.7334
  32
34.6666679382
  13
588214.552734
  23
6641872.7334
  33
34.6666679382
   0
3DFACE
   8
Baron schakt
  10
588214.265625
  20
6641872.55127
  30
34.6666679382
  11
588215.174805
  21
6641872.85107
  31
33
  12
588214.552734
  22
6641872.7334
  32
34.6666679382
  13
588214.552734
  23
6641872.7334
  33
34.6666679382
   0
3DFACE
   8
Baron schakt
  10
588213.930664
  20
6641872.61584
  30
36.3333320618
  11
588213.355469
  21
6641872.25146
  31
36.3333320618
  12
588214.265625
  22
6641872.55127
  32
34.6666679382
  13
588214.265625
  23
6641872.55127
  33
34.6666679382
   0
3DFACE
   8
Baron schakt
  10
588213.396484
  20
6641871.78809
  30
34.6666679382
  11
588214.265625
  21
6641872.55127
  31
34.6666679382
  12
588213.355469
  22
6641872.25146
  32
36.3333320618
  13
588213.355469
  23
6641872.25146
  33
36.3333320618
   0
3DFACE
   8
Baron schakt
  10
588214.365234
  20
6641875.61597
  30
33
  11
588210.671875
  21
6641874.72449
  31
33
  12
588211.960938
  22
6641877.30286
  32
33
  13
588211.960938
  23
6641877.30286
  33
33
   0
3DFACE
   8
Baron schakt
  10
588211.822266
  20
6641873.32837
  30
43
  11
588212.006836
  21
6641872.77539
  31
43
  12
588212.654297
  22
6641872.55872
  32
42.9998779297
  13
588212.654297
  23
6641872.55872
  33
42.9998779297
   0
3DFACE
   8
Baron schakt
  10
588212.654297
  20
6641872.55872
  30
42.9998779297
  11
588212.006836
  21
6641872.77539
  31
43
  12
588212.414063
  22
6641872.26453
  32
41.7499084473
  13
588212.414063
  23
6641872.26453
  33
41.7499084473
   0
3DFACE
   8
Baron schakt
  10
588213.268555
  20
6641872.57581
  30
42.9998779297
  11
588211.822266
  21
6641873.32837
  31
43
  12
588212.654297
  22
6641872.55872
  32
42.9998779297
  13
588212.654297
  23
6641872.55872
  33
42.9998779297
   0
3DFACE
   8
Baron schakt
  10
588212.006836
  20
6641872.77539
  30
43
  11
588211.822266
  21
6641873.32837
  31
43
  12
588211.615234
  22
6641872.97961
  32
41.75
  13
588211.615234
  23
6641872.97961
  33
41.75
   0
3DFACE
   8
Baron schakt
  10
588211.822266
  20
6641873.32837
  30
43
  11
588211.580078
  21
6641873.20667
  31
41.7500228882
  12
588211.615234
  22
6641872.97961
  32
41.75
  13
588211.615234
  23
6641872.97961
  33
41.75
   0
3DFACE
   8
Baron schakt
  10
588212.006836
  20
6641872.77539
  30
43
  11
588211.615234
  21
6641872.97961
  31
41.75
  12
588211.753906
  22
6641872.56494
  32
41.75
  13
588211.753906
  23
6641872.56494
  33
41.75
   0
3DFACE
   8
Baron schakt
  10
588211.753906
  20
6641872.56494
  30
41.75
  11
588211.615234
  21
6641872.97961
  31
41.75
  12
588211.408203
  22
6641872.63086
  32
40.5
  13
588211.408203
  23
6641872.63086
  33
40.5
   0
3DFACE
   8
Baron schakt
  10
588212.006836
  20
6641872.77539
  30
43
  11
588211.753906
  21
6641872.56494
  31
41.75
  12
588211.928711
  22
6641872.427
  32
41.75
  13
588211.928711
  23
6641872.427
  33
41.75
   0
3DFACE
   8
Baron schakt
  10
588211.753906
  20
6641872.56494
  30
41.75
  11
588211.500977
  21
6641872.35437
  31
40.5
  12
588211.928711
  22
6641872.427
  32
41.75
  13
588211.928711
  23
6641872.427
  33
41.75
   0
3DFACE
   8
Baron schakt
  10
588211.500977
  20
6641872.35437
  30
40.5
  11
588211.850586
  21
6641872.07861
  31
40.5
  12
588211.928711
  22
6641872.427
  32
41.75
  13
588211.928711
  23
6641872.427
  33
41.75
   0
3DFACE
   8
Baron schakt
  10
588212.006836
  20
6641872.77539
  30
43
  11
588211.928711
  21
6641872.427
  31
41.75
  12
588212.414063
  22
6641872.26453
  32
41.7499084473
  13
588212.414063
  23
6641872.26453
  33
41.7499084473
   0
3DFACE
   8
Baron schakt
  10
588212.414063
  20
6641872.26453
  30
41.7499084473
  11
588211.928711
  21
6641872.427
  31
41.75
  12
588212.173828
  22
6641871.97021
  32
40.4999389648
  13
588212.173828
  23
6641871.97021
  33
40.4999389648
   0
3DFACE
   8
Baron schakt
  10
588211.928711
  20
6641872.427
  30
41.75
  11
588211.850586
  21
6641872.07861
  31
40.5
  12
588212.173828
  22
6641871.97021
  32
40.4999389648
  13
588212.173828
  23
6641871.97021
  33
40.4999389648
   0
3DFACE
   8
Baron schakt
  10
588212.173828
  20
6641871.97021
  30
40.4999389648
  11
588212.550781
  21
6641872.25513
  31
40.4999389648
  12
588212.414063
  22
6641872.26453
  32
41.7499084473
  13
588212.414063
  23
6641872.26453
  33
41.7499084473
   0
3DFACE
   8
Baron schakt
  10
588212.414063
  20
6641872.26453
  30
41.7499084473
  11
588212.550781
  21
6641872.25513
  31
40.4999389648
  12
588212.602539
  22
6641872.40698
  32
41.7499084473
  13
588212.602539
  23
6641872.40698
  33
41.7499084473
   0
3DFACE
   8
Baron schakt
  10
588212.173828
  20
6641871.97021
  30
40.4999389648
  11
588212.498047
  21
6641872.10339
  31
39.2499694824
  12
588212.550781
  22
6641872.25513
  32
40.4999389648
  13
588212.550781
  23
6641872.25513
  33
40.4999389648
   0
3DFACE
   8
Baron schakt
  10
588212.550781
  20
6641872.25513
  30
40.4999389648
  11
588212.498047
  21
6641872.10339
  31
39.2499694824
  12
588212.652344
  22
6641872.10767
  32
39.2499694824
  13
588212.652344
  23
6641872.10767
  33
39.2499694824
   0
3DFACE
   8
Baron schakt
  10
588211.93457
  20
6641871.67603
  30
39.2499694824
  11
588212.498047
  21
6641872.10339
  31
39.2499694824
  12
588212.173828
  22
6641871.97021
  32
40.4999389648
  13
588212.173828
  23
6641871.97021
  33
40.4999389648
   0
3DFACE
   8
Baron schakt
  10
588212.173828
  20
6641871.97021
  30
40.4999389648
  11
588211.850586
  21
6641872.07861
  31
40.5
  12
588211.93457
  22
6641871.67603
  32
39.2499694824
  13
588211.93457
  23
6641871.67603
  33
39.2499694824
   0
3DFACE
   8
Baron schakt
  10
588211.93457
  20
6641871.67603
  30
39.2499694824
  11
588211.694336
  21
6641871.38184
  31
38
  12
588212.498047
  22
6641872.10339
  32
39.2499694824
  13
588212.498047
  23
6641872.10339
  33
39.2499694824
   0
3DFACE
   8
Baron schakt
  10
588212.498047
  20
6641872.10339
  30
39.2499694824
  11
588211.694336
  21
6641871.38184
  31
38
  12
588212.446289
  22
6641871.95166
  32
38
  13
588212.446289
  23
6641871.95166
  33
38
   0
3DFACE
   8
Baron schakt
  10
588211.772461
  20
6641871.73022
  30
39.25
  11
588211.694336
  21
6641871.38184
  31
38
  12
588211.93457
  22
6641871.67603
  32
39.2499694824
  13
588211.93457
  23
6641871.67603
  33
39.2499694824
   0
3DFACE
   8
Baron schakt
  10
588211.850586
  20
6641872.07861
  30
40.5
  11
588211.772461
  21
6641871.73022
  31
39.25
  12
588211.93457
  22
6641871.67603
  32
39.2499694824
  13
588211.93457
  23
6641871.67603
  33
39.2499694824
   0
3DFACE
   8
Baron schakt
  10
588211.772461
  20
6641871.73022
  30
39.25
  11
588210.995117
  21
6641871.93335
  31
38
  12
588211.694336
  22
6641871.38184
  32
38
  13
588211.694336
  23
6641871.38184
  33
38
   0
3DFACE
   8
Baron schakt
  10
588211.694336
  20
6641871.38184
  30
38
  11
588210.995117
  21
6641871.93335
  31
38
  12
588212.446289
  22
6641871.95166
  32
38
  13
588212.446289
  23
6641871.95166
  33
38
   0
3DFACE
   8
Baron schakt
  10
588211.248047
  20
6641872.1438
  30
39.25
  11
588210.995117
  21
6641871.93335
  31
38
  12
588211.772461
  22
6641871.73022
  32
39.25
  13
588211.772461
  23
6641871.73022
  33
39.25
   0
3DFACE
   8
Baron schakt
  10
588211.248047
  20
6641872.1438
  30
39.25
  11
588211.772461
  21
6641871.73022
  31
39.25
  12
588211.850586
  22
6641872.07861
  32
40.5
  13
588211.850586
  23
6641872.07861
  33
40.5
   0
3DFACE
   8
Baron schakt
  10
588211.202148
  20
6641872.2821
  30
39.25
  11
588210.995117
  21
6641871.93335
  31
38
  12
588211.248047
  22
6641872.1438
  32
39.25
  13
588211.248047
  23
6641872.1438
  33
39.25
   0
3DFACE
   8
Baron schakt
  10
588211.500977
  20
6641872.35437
  30
40.5
  11
588211.202148
  21
6641872.2821
  31
39.25
  12
588211.248047
  22
6641872.1438
  32
39.25
  13
588211.248047
  23
6641872.1438
  33
39.25
   0
3DFACE
   8
Baron schakt
  10
588211.097656
  20
6641872.96326
  30
39.2500648499
  11
588210.995117
  21
6641871.93335
  31
38
  12
588211.202148
  22
6641872.2821
  32
39.25
  13
588211.202148
  23
6641872.2821
  33
39.25
   0
3DFACE
   8
Baron schakt
  10
588211.097656
  20
6641872.96326
  30
39.2500648499
  11
588211.202148
  21
6641872.2821
  31
39.25
  12
588211.408203
  22
6641872.63086
  32
40.5
  13
588211.408203
  23
6641872.63086
  33
40.5
   0
3DFACE
   8
Baron schakt
  10
588210.855469
  20
6641872.84155
  30
38.000087738
  11
588210.995117
  21
6641871.93335
  31
38
  12
588211.097656
  22
6641872.96326
  32
39.2500648499
  13
588211.097656
  23
6641872.96326
  33
39.2500648499
   0
3DFACE
   8
Baron schakt
  10
588211.000977
  20
6641873.12622
  30
39.2500038147
  11
588210.855469
  21
6641872.84155
  31
38.000087738
  12
588211.097656
  22
6641872.96326
  32
39.2500648499
  13
588211.097656
  23
6641872.96326
  33
39.2500648499
   0
3DFACE
   8
Baron schakt
  10
588212.446289
  20
6641871.95166
  30
38
  11
588210.995117
  21
6641871.93335
  31
38
  12
588210.855469
  22
6641872.84155
  32
38.000087738
  13
588210.855469
  23
6641872.84155
  33
38.000087738
   0
3DFACE
   8
Baron schakt
  10
588212.446289
  20
6641871.95166
  30
38
  11
588210.855469
  21
6641872.84155
  31
38.000087738
  12
588210.874023
  22
6641873.62793
  32
38
  13
588210.874023
  23
6641873.62793
  33
38
   0
3DFACE
   8
Baron schakt
  10
588210.874023
  20
6641873.62793
  30
38
  11
588210.855469
  21
6641872.84155
  31
38.000087738
  12
588211.015625
  22
6641873.71606
  32
39.2499389648
  13
588211.015625
  23
6641873.71606
  33
39.2499389648
   0
3DFACE
   8
Baron schakt
  10
588213.308594
  20
6641872.49817
  30
38
  11
588212.446289
  21
6641871.95166
  31
38
  12
588210.874023
  22
6641873.62793
  32
38
  13
588210.874023
  23
6641873.62793
  33
38
   0
3DFACE
   8
Baron schakt
  10
588213.902344
  20
6641873.10022
  30
40.5
  11
588214.037109
  21
6641873.59106
  31
40.5000610352
  12
588214.200195
  22
6641873.40125
  32
41.75
  13
588214.200195
  23
6641873.40125
  33
41.75
   0
3DFACE
   8
Baron schakt
  10
588213.308594
  20
6641872.49817
  30
38
  11
588210.874023
  21
6641873.62793
  31
38
  12
588213.577148
  22
6641873.47998
  32
38.0001220703
  13
588213.577148
  23
6641873.47998
  33
38.0001220703
   0
3DFACE
   8
Baron schakt
  10
588213.490234
  20
6641872.67969
  30
39.25
  11
588212.446289
  21
6641871.95166
  31
38
  12
588213.308594
  22
6641872.49817
  32
38
  13
588213.308594
  23
6641872.49817
  33
38
   0
3DFACE
   8
Baron schakt
  10
588213.490234
  20
6641872.67969
  30
39.25
  11
588213.308594
  21
6641872.49817
  31
38
  12
588213.605469
  22
6641872.79919
  32
39.25
  13
588213.605469
  23
6641872.79919
  33
39.25
   0
3DFACE
   8
Baron schakt
  10
588212.84375
  20
6641872.26978
  30
39.25
  11
588212.446289
  21
6641871.95166
  31
38
  12
588213.490234
  22
6641872.67969
  32
39.25
  13
588213.490234
  23
6641872.67969
  33
39.25
   0
3DFACE
   8
Baron schakt
  10
588212.84375
  20
6641872.26978
  30
39.25
  11
588213.490234
  21
6641872.67969
  31
39.25
  12
588213.241211
  22
6641872.58801
  32
40.5
  13
588213.241211
  23
6641872.58801
  33
40.5
   0
3DFACE
   8
Baron schakt
  10
588212.652344
  20
6641872.10767
  30
39.2499694824
  11
588212.446289
  21
6641871.95166
  31
38
  12
588212.84375
  22
6641872.26978
  32
39.25
  13
588212.84375
  23
6641872.26978
  33
39.25
   0
3DFACE
   8
Baron schakt
  10
588212.857422
  20
6641872.26367
  30
40.4999389648
  11
588212.652344
  21
6641872.10767
  31
39.2499694824
  12
588212.84375
  22
6641872.26978
  32
39.25
  13
588212.84375
  23
6641872.26978
  33
39.25
   0
3DFACE
   8
Baron schakt
  10
588212.498047
  20
6641872.10339
  30
39.2499694824
  11
588212.446289
  21
6641871.95166
  31
38
  12
588212.652344
  22
6641872.10767
  32
39.2499694824
  13
588212.652344
  23
6641872.10767
  33
39.2499694824
   0
3DFACE
   8
Baron schakt
  10
588213.241211
  20
6641872.58801
  30
40.5
  11
588212.857422
  21
6641872.26367
  31
40.4999389648
  12
588212.84375
  22
6641872.26978
  32
39.25
  13
588212.84375
  23
6641872.26978
  33
39.25
   0
3DFACE
   8
Baron schakt
  10
588212.857422
  20
6641872.26367
  30
40.4999389648
  11
588212.550781
  21
6641872.25513
  31
40.4999389648
  12
588212.652344
  22
6641872.10767
  32
39.2499694824
  13
588212.652344
  23
6641872.10767
  33
39.2499694824
   0
3DFACE
   8
Baron schakt
  10
588212.602539
  20
6641872.40698
  30
41.7499084473
  11
588212.550781
  21
6641872.25513
  31
40.4999389648
  12
588212.857422
  22
6641872.26367
  32
40.4999389648
  13
588212.857422
  23
6641872.26367
  33
40.4999389648
   0
3DFACE
   8
Baron schakt
  10
588213.0625
  20
6641872.4198
  30
41.7499084473
  11
588212.602539
  21
6641872.40698
  31
41.7499084473
  12
588212.857422
  22
6641872.26367
  32
40.4999389648
  13
588212.857422
  23
6641872.26367
  33
40.4999389648
   0
3DFACE
   8
Baron schakt
  10
588213.0625
  20
6641872.4198
  30
41.7499084473
  11
588212.857422
  21
6641872.26367
  31
40.4999389648
  12
588213.241211
  22
6641872.58801
  32
40.5
  13
588213.241211
  23
6641872.58801
  33
40.5
   0
3DFACE
   8
Baron schakt
  10
588212.654297
  20
6641872.55872
  30
42.9998779297
  11
588212.602539
  21
6641872.40698
  31
41.7499084473
  12
588213.0625
  22
6641872.4198
  32
41.7499084473
  13
588213.0625
  23
6641872.4198
  33
41.7499084473
   0
3DFACE
   8
Baron schakt
  10
588213.268555
  20
6641872.57581
  30
42.9998779297
  11
588212.654297
  21
6641872.55872
  31
42.9998779297
  12
588213.0625
  22
6641872.4198
  32
41.7499084473
  13
588213.0625
  23
6641872.4198
  33
41.7499084473
   0
3DFACE
   8
Baron schakt
  10
588212.654297
  20
6641872.55872
  30
42.9998779297
  11
588212.414063
  21
6641872.26453
  31
41.7499084473
  12
588212.602539
  22
6641872.40698
  32
41.7499084473
  13
588212.602539
  23
6641872.40698
  33
41.7499084473
   0
3DFACE
   8
Baron schakt
  10
588213.268555
  20
6641872.57581
  30
42.9998779297
  11
588213.0625
  21
6641872.4198
  31
41.7499084473
  12
588213.638672
  22
6641872.90625
  32
41.75
  13
588213.638672
  23
6641872.90625
  33
41.75
   0
3DFACE
   8
Baron schakt
  10
588213.638672
  20
6641872.90625
  30
41.75
  11
588213.0625
  21
6641872.4198
  31
41.7499084473
  12
588213.241211
  22
6641872.58801
  32
40.5
  13
588213.241211
  23
6641872.58801
  33
40.5
   0
3DFACE
   8
Baron schakt
  10
588214.036133
  20
6641873.22437
  30
43
  11
588213.268555
  21
6641872.57581
  31
42.9998779297
  12
588213.638672
  22
6641872.90625
  32
41.75
  13
588213.638672
  23
6641872.90625
  33
41.75
   0
3DFACE
   8
Baron schakt
  10
588214.036133
  20
6641873.22437
  30
43
  11
588213.638672
  21
6641872.90625
  31
41.75
  12
588213.854492
  22
6641873.04285
  32
41.75
  13
588213.854492
  23
6641873.04285
  33
41.75
   0
3DFACE
   8
Baron schakt
  10
588214.037109
  20
6641873.59106
  30
40.5000610352
  11
588213.806641
  21
6641873.53552
  31
39.2500915527
  12
588213.796875
  22
6641873.70093
  32
39.2500762939
  13
588213.796875
  23
6641873.70093
  33
39.2500762939
   0
3DFACE
   8
Baron schakt
  10
588214.036133
  20
6641873.22437
  30
43
  11
588211.822266
  21
6641873.32837
  31
43
  12
588213.268555
  22
6641872.57581
  32
42.9998779297
  13
588213.268555
  23
6641872.57581
  33
42.9998779297
   0
3DFACE
   8
Baron schakt
  10
588213.671875
  20
6641872.86133
  30
40.5
  11
588213.490234
  21
6641872.67969
  31
39.25
  12
588213.605469
  22
6641872.79919
  32
39.25
  13
588213.605469
  23
6641872.79919
  33
39.25
   0
3DFACE
   8
Baron schakt
  10
588214.036133
  20
6641873.22437
  30
43
  11
588211.744141
  21
6641874.85999
  31
43
  12
588211.822266
  22
6641873.32837
  32
43
  13
588211.822266
  23
6641873.32837
  33
43
   0
3DFACE
   8
Baron schakt
  10
588211.744141
  20
6641874.85999
  30
43
  11
588211.438477
  21
6641873.98035
  31
42.9997558594
  12
588211.822266
  22
6641873.32837
  32
43
  13
588211.822266
  23
6641873.32837
  33
43
   0
3DFACE
   8
Baron schakt
  10
588213.302734
  20
6641875.5481
  30
43
  11
588211.744141
  21
6641874.85999
  31
43
  12
588214.036133
  22
6641873.22437
  32
43
  13
588214.036133
  23
6641873.22437
  33
43
   0
3DFACE
   8
Baron schakt
  10
588213.302734
  20
6641875.5481
  30
43
  11
588214.036133
  21
6641873.22437
  31
43
  12
588214.458008
  22
6641874.36377
  32
42.9999427795
  13
588214.458008
  23
6641874.36377
  33
42.9999427795
   0
3DFACE
   8
Baron schakt
  10
588213.302734
  20
6641875.5481
  30
43
  11
588212.423828
  21
6641875.50183
  31
42.9998779297
  12
588211.744141
  22
6641874.85999
  32
43
  13
588211.744141
  23
6641874.85999
  33
43
   0
3DFACE
   8
Baron schakt
  10
588211.744141
  20
6641874.85999
  30
43
  11
588212.423828
  21
6641875.50183
  31
42.9998779297
  12
588212.113281
  22
6641875.1947
  32
41.7498779297
  13
588212.113281
  23
6641875.1947
  33
41.7498779297
   0
3DFACE
   8
Baron schakt
  10
588212.423828
  20
6641875.50183
  30
42.9998779297
  11
588213.302734
  21
6641875.5481
  31
43
  12
588212.964844
  22
6641875.36548
  32
41.75
  13
588212.964844
  23
6641875.36548
  33
41.75
   0
3DFACE
   8
Baron schakt
  10
588213.302734
  20
6641875.5481
  30
43
  11
588213.094727
  21
6641875.41162
  31
41.7500305176
  12
588212.964844
  22
6641875.36548
  32
41.75
  13
588212.964844
  23
6641875.36548
  33
41.75
   0
3DFACE
   8
Baron schakt
  10
588212.423828
  20
6641875.50183
  30
42.9998779297
  11
588212.964844
  21
6641875.36548
  31
41.75
  12
588212.305664
  22
6641875.33069
  32
41.7499084473
  13
588212.305664
  23
6641875.33069
  33
41.7499084473
   0
3DFACE
   8
Baron schakt
  10
588212.305664
  20
6641875.33069
  30
41.7499084473
  11
588212.964844
  21
6641875.36548
  31
41.75
  12
588212.626953
  22
6641875.18274
  32
40.5
  13
588212.626953
  23
6641875.18274
  33
40.5
   0
3DFACE
   8
Baron schakt
  10
588212.423828
  20
6641875.50183
  30
42.9998779297
  11
588212.305664
  21
6641875.33069
  31
41.7499084473
  12
588212.113281
  22
6641875.1947
  32
41.7498779297
  13
588212.113281
  23
6641875.1947
  33
41.7498779297
   0
3DFACE
   8
Baron schakt
  10
588212.305664
  20
6641875.33069
  30
41.7499084473
  11
588212.1875
  21
6641875.15967
  31
40.4999389648
  12
588212.113281
  22
6641875.1947
  32
41.7498779297
  13
588212.113281
  23
6641875.1947
  33
41.7498779297
   0
3DFACE
   8
Baron schakt
  10
588212.1875
  20
6641875.15967
  30
40.4999389648
  11
588211.803711
  21
6641874.8877
  31
40.4998779297
  12
588212.113281
  22
6641875.1947
  32
41.7498779297
  13
588212.113281
  23
6641875.1947
  33
41.7498779297
   0
3DFACE
   8
Baron schakt
  10
588212.305664
  20
6641875.33069
  30
41.7499084473
  11
588212.626953
  21
6641875.18274
  31
40.5
  12
588212.1875
  22
6641875.15967
  32
40.4999389648
  13
588212.1875
  23
6641875.15967
  33
40.4999389648
   0
3DFACE
   8
Baron schakt
  10
588212.1875
  20
6641875.15967
  30
40.4999389648
  11
588212.626953
  21
6641875.18274
  31
40.5
  12
588212.290039
  22
6641875
  32
39.25
  13
588212.290039
  23
6641875
  33
39.25
   0
3DFACE
   8
Baron schakt
  10
588212.626953
  20
6641875.18274
  30
40.5
  11
588212.679688
  21
6641875.13855
  31
39.2500915527
  12
588212.290039
  22
6641875
  32
39.25
  13
588212.290039
  23
6641875
  33
39.25
   0
3DFACE
   8
Baron schakt
  10
588212.1875
  20
6641875.15967
  30
40.4999389648
  11
588212.290039
  21
6641875
  31
39.25
  12
588212.070313
  22
6641874.98853
  32
39.2499694824
  13
588212.070313
  23
6641874.98853
  33
39.2499694824
   0
3DFACE
   8
Baron schakt
  10
588212.290039
  20
6641875
  30
39.25
  11
588211.952148
  21
6641874.81738
  31
38
  12
588212.070313
  22
6641874.98853
  32
39.2499694824
  13
588212.070313
  23
6641874.98853
  33
39.2499694824
   0
3DFACE
   8
Baron schakt
  10
588212.1875
  20
6641875.15967
  30
40.4999389648
  11
588212.070313
  21
6641874.98853
  31
39.2499694824
  12
588211.803711
  22
6641874.8877
  32
40.4998779297
  13
588211.803711
  23
6641874.8877
  33
40.4998779297
   0
3DFACE
   8
Baron schakt
  10
588212.070313
  20
6641874.98853
  30
39.2499694824
  11
588211.494141
  21
6641874.58057
  31
39.2498779297
  12
588211.803711
  22
6641874.8877
  32
40.4998779297
  13
588211.803711
  23
6641874.8877
  33
40.4998779297
   0
3DFACE
   8
Baron schakt
  10
588211.463867
  20
6641874.56665
  30
40.4999389648
  11
588211.803711
  21
6641874.8877
  31
40.4998779297
  12
588211.494141
  22
6641874.58057
  32
39.2498779297
  13
588211.494141
  23
6641874.58057
  33
39.2498779297
   0
3DFACE
   8
Baron schakt
  10
588212.070313
  20
6641874.98853
  30
39.2499694824
  11
588211.183594
  21
6641874.27344
  31
37.9998779297
  12
588211.494141
  22
6641874.58057
  32
39.2498779297
  13
588211.494141
  23
6641874.58057
  33
39.2498779297
   0
3DFACE
   8
Baron schakt
  10
588211.494141
  20
6641874.58057
  30
39.2498779297
  11
588211.183594
  21
6641874.27344
  31
37.9998779297
  12
588211.324219
  22
6641874.42004
  32
39.2499084473
  13
588211.324219
  23
6641874.42004
  33
39.2499084473
   0
3DFACE
   8
Baron schakt
  10
588211.952148
  20
6641874.81738
  30
38
  11
588211.183594
  21
6641874.27344
  31
37.9998779297
  12
588212.070313
  22
6641874.98853
  32
39.2499694824
  13
588212.070313
  23
6641874.98853
  33
39.2499694824
   0
3DFACE
   8
Baron schakt
  10
588213.267578
  20
6641874.2196
  30
38.0001220703
  11
588211.183594
  21
6641874.27344
  31
37.9998779297
  12
588211.952148
  22
6641874.81738
  32
38
  13
588211.952148
  23
6641874.81738
  33
38
   0
3DFACE
   8
Baron schakt
  10
588213.267578
  20
6641874.2196
  30
38.0001220703
  11
588211.952148
  21
6641874.81738
  31
38
  12
588212.47168
  22
6641875.00208
  32
38.0001220703
  13
588212.47168
  23
6641875.00208
  33
38.0001220703
   0
3DFACE
   8
Baron schakt
  10
588213.308594
  20
6641872.49817
  30
38
  11
588213.577148
  21
6641873.47998
  31
38.0001220703
  12
588213.806641
  22
6641873.53552
  32
39.2500915527
  13
588213.806641
  23
6641873.53552
  33
39.2500915527
   0
3DFACE
   8
Baron schakt
  10
588210.874023
  20
6641873.62793
  30
38
  11
588211.183594
  21
6641874.27344
  31
37.9998779297
  12
588213.267578
  22
6641874.2196
  32
38.0001220703
  13
588213.267578
  23
6641874.2196
  33
38.0001220703
   0
3DFACE
   8
Baron schakt
  10
588213.577148
  20
6641873.47998
  30
38.0001220703
  11
588210.874023
  21
6641873.62793
  31
38
  12
588213.267578
  22
6641874.2196
  32
38.0001220703
  13
588213.267578
  23
6641874.2196
  33
38.0001220703
   0
3DFACE
   8
Baron schakt
  10
588211.183594
  20
6641874.27344
  30
37.9998779297
  11
588210.874023
  21
6641873.62793
  31
38
  12
588211.324219
  22
6641874.42004
  32
39.2499084473
  13
588211.324219
  23
6641874.42004
  33
39.2499084473
   0
3DFACE
   8
Baron schakt
  10
588211.324219
  20
6641874.42004
  30
39.2499084473
  11
588210.874023
  21
6641873.62793
  31
38
  12
588211.091797
  22
6641873.93591
  32
39.25
  13
588211.091797
  23
6641873.93591
  33
39.25
   0
3DFACE
   8
Baron schakt
  10
588211.091797
  20
6641873.93591
  30
39.25
  11
588210.874023
  21
6641873.62793
  31
38
  12
588211.015625
  22
6641873.71606
  32
39.2499389648
  13
588211.015625
  23
6641873.71606
  33
39.2499389648
   0
3DFACE
   8
Baron schakt
  10
588211.324219
  20
6641874.42004
  30
39.2499084473
  11
588211.091797
  21
6641873.93591
  31
39.25
  12
588211.308594
  22
6641874.2439
  32
40.5
  13
588211.308594
  23
6641874.2439
  33
40.5
   0
3DFACE
   8
Baron schakt
  10
588211.15625
  20
6641873.8042
  30
40.4998779297
  11
588211.308594
  21
6641874.2439
  31
40.5
  12
588211.091797
  22
6641873.93591
  32
39.25
  13
588211.091797
  23
6641873.93591
  33
39.25
   0
3DFACE
   8
Baron schakt
  10
588211.463867
  20
6641874.56665
  30
40.4999389648
  11
588211.324219
  21
6641874.42004
  31
39.2499084473
  12
588211.308594
  22
6641874.2439
  32
40.5
  13
588211.308594
  23
6641874.2439
  33
40.5
   0
3DFACE
   8
Baron schakt
  10
588211.463867
  20
6641874.56665
  30
40.4999389648
  11
588211.308594
  21
6641874.2439
  31
40.5
  12
588211.526367
  22
6641874.552
  32
41.75
  13
588211.526367
  23
6641874.552
  33
41.75
   0
3DFACE
   8
Baron schakt
  10
588211.463867
  20
6641874.56665
  30
40.4999389648
  11
588211.494141
  21
6641874.58057
  31
39.2498779297
  12
588211.324219
  22
6641874.42004
  32
39.2499084473
  13
588211.324219
  23
6641874.42004
  33
39.2499084473
   0
3DFACE
   8
Baron schakt
  10
588211.296875
  20
6641873.89221
  30
41.7498168945
  11
588211.526367
  21
6641874.552
  31
41.75
  12
588211.308594
  22
6641874.2439
  32
40.5
  13
588211.308594
  23
6641874.2439
  33
40.5
   0
3DFACE
   8
Baron schakt
  10
588211.603516
  20
6641874.71338
  30
41.7499694824
  11
588211.463867
  21
6641874.56665
  31
40.4999389648
  12
588211.526367
  22
6641874.552
  32
41.75
  13
588211.526367
  23
6641874.552
  33
41.75
   0
3DFACE
   8
Baron schakt
  10
588211.744141
  20
6641874.85999
  30
43
  11
588211.603516
  21
6641874.71338
  31
41.7499694824
  12
588211.526367
  22
6641874.552
  32
41.75
  13
588211.526367
  23
6641874.552
  33
41.75
   0
3DFACE
   8
Baron schakt
  10
588211.603516
  20
6641874.71338
  30
41.7499694824
  11
588211.803711
  21
6641874.8877
  31
40.4998779297
  12
588211.463867
  22
6641874.56665
  32
40.4999389648
  13
588211.463867
  23
6641874.56665
  33
40.4999389648
   0
3DFACE
   8
Baron schakt
  10
588211.603516
  20
6641874.71338
  30
41.7499694824
  11
588212.113281
  21
6641875.1947
  31
41.7498779297
  12
588211.803711
  22
6641874.8877
  32
40.4998779297
  13
588211.803711
  23
6641874.8877
  33
40.4998779297
   0
3DFACE
   8
Baron schakt
  10
588213.796875
  20
6641873.70093
  30
39.2500762939
  11
588214.017578
  21
6641873.92188
  31
40.5000305176
  12
588214.037109
  22
6641873.59106
  32
40.5000610352
  13
588214.037109
  23
6641873.59106
  33
40.5000610352
   0
3DFACE
   8
Baron schakt
  10
588211.744141
  20
6641874.85999
  30
43
  11
588212.113281
  21
6641875.1947
  31
41.7498779297
  12
588211.603516
  22
6641874.71338
  32
41.7499694824
  13
588211.603516
  23
6641874.71338
  33
41.7499694824
   0
3DFACE
   8
Baron schakt
  10
588211.438477
  20
6641873.98035
  30
42.9997558594
  11
588211.744141
  21
6641874.85999
  31
43
  12
588211.526367
  22
6641874.552
  32
41.75
  13
588211.526367
  23
6641874.552
  33
41.75
   0
3DFACE
   8
Baron schakt
  10
588211.438477
  20
6641873.98035
  30
42.9997558594
  11
588211.526367
  21
6641874.552
  31
41.75
  12
588211.296875
  22
6641873.89221
  32
41.7498168945
  13
588211.296875
  23
6641873.89221
  33
41.7498168945
   0
3DFACE
   8
Baron schakt
  10
588211.438477
  20
6641873.98035
  30
42.9997558594
  11
588211.296875
  21
6641873.89221
  31
41.7498168945
  12
588211.292969
  22
6641873.69568
  32
41.7498397827
  13
588211.292969
  23
6641873.69568
  33
41.7498397827
   0
3DFACE
   8
Baron schakt
  10
588211.296875
  20
6641873.89221
  30
41.7498168945
  11
588211.15625
  21
6641873.8042
  31
40.4998779297
  12
588211.292969
  22
6641873.69568
  32
41.7498397827
  13
588211.292969
  23
6641873.69568
  33
41.7498397827
   0
3DFACE
   8
Baron schakt
  10
588211.822266
  20
6641873.32837
  30
43
  11
588211.438477
  21
6641873.98035
  31
42.9997558594
  12
588211.292969
  22
6641873.69568
  32
41.7498397827
  13
588211.292969
  23
6641873.69568
  33
41.7498397827
   0
3DFACE
   8
Baron schakt
  10
588211.822266
  20
6641873.32837
  30
43
  11
588211.292969
  21
6641873.69568
  31
41.7498397827
  12
588211.580078
  22
6641873.20667
  32
41.7500228882
  13
588211.580078
  23
6641873.20667
  33
41.7500228882
   0
3DFACE
   8
Baron schakt
  10
588211.580078
  20
6641873.20667
  30
41.7500228882
  11
588211.292969
  21
6641873.69568
  31
41.7498397827
  12
588211.146484
  22
6641873.41089
  32
40.4999237061
  13
588211.146484
  23
6641873.41089
  33
40.4999237061
   0
3DFACE
   8
Baron schakt
  10
588211.15625
  20
6641873.8042
  30
40.4998779297
  11
588211.146484
  21
6641873.41089
  31
40.4999237061
  12
588211.292969
  22
6641873.69568
  32
41.7498397827
  13
588211.292969
  23
6641873.69568
  33
41.7498397827
   0
3DFACE
   8
Baron schakt
  10
588211.580078
  20
6641873.20667
  30
41.7500228882
  11
588211.146484
  21
6641873.41089
  31
40.4999237061
  12
588211.338867
  22
6641873.08496
  32
40.5000457764
  13
588211.338867
  23
6641873.08496
  33
40.5000457764
   0
3DFACE
   8
Baron schakt
  10
588211.338867
  20
6641873.08496
  30
40.5000457764
  11
588211.146484
  21
6641873.41089
  31
40.4999237061
  12
588211.000977
  22
6641873.12622
  32
39.2500038147
  13
588211.000977
  23
6641873.12622
  33
39.2500038147
   0
3DFACE
   8
Baron schakt
  10
588211.580078
  20
6641873.20667
  30
41.7500228882
  11
588211.338867
  21
6641873.08496
  31
40.5000457764
  12
588211.615234
  22
6641872.97961
  32
41.75
  13
588211.615234
  23
6641872.97961
  33
41.75
   0
3DFACE
   8
Baron schakt
  10
588211.338867
  20
6641873.08496
  30
40.5000457764
  11
588211.408203
  21
6641872.63086
  31
40.5
  12
588211.615234
  22
6641872.97961
  32
41.75
  13
588211.615234
  23
6641872.97961
  33
41.75
   0
3DFACE
   8
Baron schakt
  10
588211.338867
  20
6641873.08496
  30
40.5000457764
  11
588211.097656
  21
6641872.96326
  31
39.2500648499
  12
588211.408203
  22
6641872.63086
  32
40.5
  13
588211.408203
  23
6641872.63086
  33
40.5
   0
3DFACE
   8
Baron schakt
  10
588211.338867
  20
6641873.08496
  30
40.5000457764
  11
588211.000977
  21
6641873.12622
  31
39.2500038147
  12
588211.097656
  22
6641872.96326
  32
39.2500648499
  13
588211.097656
  23
6641872.96326
  33
39.2500648499
   0
3DFACE
   8
Baron schakt
  10
588211.015625
  20
6641873.71606
  30
39.2499389648
  11
588211.000977
  21
6641873.12622
  31
39.2500038147
  12
588211.146484
  22
6641873.41089
  32
40.4999237061
  13
588211.146484
  23
6641873.41089
  33
40.4999237061
   0
3DFACE
   8
Baron schakt
  10
588211.15625
  20
6641873.8042
  30
40.4998779297
  11
588211.015625
  21
6641873.71606
  31
39.2499389648
  12
588211.146484
  22
6641873.41089
  32
40.4999237061
  13
588211.146484
  23
6641873.41089
  33
40.4999237061
   0
3DFACE
   8
Baron schakt
  10
588211.015625
  20
6641873.71606
  30
39.2499389648
  11
588210.855469
  21
6641872.84155
  31
38.000087738
  12
588211.000977
  22
6641873.12622
  32
39.2500038147
  13
588211.000977
  23
6641873.12622
  33
39.2500038147
   0
3DFACE
   8
Baron schakt
  10
588211.15625
  20
6641873.8042
  30
40.4998779297
  11
588211.091797
  21
6641873.93591
  31
39.25
  12
588211.015625
  22
6641873.71606
  32
39.2499389648
  13
588211.015625
  23
6641873.71606
  33
39.2499389648
   0
3DFACE
   8
Baron schakt
  10
588211.296875
  20
6641873.89221
  30
41.7498168945
  11
588211.308594
  21
6641874.2439
  31
40.5
  12
588211.15625
  22
6641873.8042
  32
40.4998779297
  13
588211.15625
  23
6641873.8042
  33
40.4998779297
   0
3DFACE
   8
Baron schakt
  10
588213.56543
  20
6641874.25562
  30
39.2500762939
  11
588213.577148
  21
6641873.47998
  31
38.0001220703
  12
588213.267578
  22
6641874.2196
  32
38.0001220703
  13
588213.267578
  23
6641874.2196
  33
38.0001220703
   0
3DFACE
   8
Baron schakt
  10
588213.469727
  20
6641874.47534
  30
39.2500991821
  11
588213.56543
  21
6641874.25562
  31
39.2500762939
  12
588213.267578
  22
6641874.2196
  32
38.0001220703
  13
588213.267578
  23
6641874.2196
  33
38.0001220703
   0
3DFACE
   8
Baron schakt
  10
588213.56543
  20
6641874.25562
  30
39.2500762939
  11
588213.796875
  21
6641873.70093
  31
39.2500762939
  12
588213.577148
  22
6641873.47998
  32
38.0001220703
  13
588213.577148
  23
6641873.47998
  33
38.0001220703
   0
3DFACE
   8
Baron schakt
  10
588213.796875
  20
6641873.70093
  30
39.2500762939
  11
588213.806641
  21
6641873.53552
  31
39.2500915527
  12
588213.577148
  22
6641873.47998
  32
38.0001220703
  13
588213.577148
  23
6641873.47998
  33
38.0001220703
   0
3DFACE
   8
Baron schakt
  10
588214.017578
  20
6641873.92188
  30
40.5000305176
  11
588213.796875
  21
6641873.70093
  31
39.2500762939
  12
588213.56543
  22
6641874.25562
  32
39.2500762939
  13
588213.56543
  23
6641874.25562
  33
39.2500762939
   0
3DFACE
   8
Baron schakt
  10
588213.863281
  20
6641874.29175
  30
40.5000305176
  11
588214.017578
  21
6641873.92188
  31
40.5000305176
  12
588213.56543
  22
6641874.25562
  32
39.2500762939
  13
588213.56543
  23
6641874.25562
  33
39.2500762939
   0
3DFACE
   8
Baron schakt
  10
588214.267578
  20
6641873.64673
  30
41.7500305176
  11
588214.037109
  21
6641873.59106
  31
40.5000610352
  12
588214.017578
  22
6641873.92188
  32
40.5000305176
  13
588214.017578
  23
6641873.92188
  33
40.5000305176
   0
3DFACE
   8
Baron schakt
  10
588213.902344
  20
6641873.10022
  30
40.5
  11
588213.806641
  21
6641873.53552
  31
39.2500915527
  12
588214.037109
  22
6641873.59106
  32
40.5000610352
  13
588214.037109
  23
6641873.59106
  33
40.5000610352
   0
3DFACE
   8
Baron schakt
  10
588213.605469
  20
6641872.79919
  30
39.25
  11
588213.806641
  21
6641873.53552
  31
39.2500915527
  12
588213.902344
  22
6641873.10022
  32
40.5
  13
588213.902344
  23
6641873.10022
  33
40.5
   0
3DFACE
   8
Baron schakt
  10
588213.902344
  20
6641873.10022
  30
40.5
  11
588213.671875
  21
6641872.86133
  31
40.5
  12
588213.605469
  22
6641872.79919
  32
39.25
  13
588213.605469
  23
6641872.79919
  33
39.25
   0
3DFACE
   8
Baron schakt
  10
588213.605469
  20
6641872.79919
  30
39.25
  11
588213.308594
  21
6641872.49817
  31
38
  12
588213.806641
  22
6641873.53552
  32
39.2500915527
  13
588213.806641
  23
6641873.53552
  33
39.2500915527
   0
3DFACE
   8
Baron schakt
  10
588214.458008
  20
6641874.36377
  30
42.9999427795
  11
588214.49707
  21
6641873.70227
  31
43
  12
588214.238281
  22
6641874.14282
  32
41.7499885559
  13
588214.238281
  23
6641874.14282
  33
41.7499885559
   0
3DFACE
   8
Baron schakt
  10
588213.854492
  20
6641873.04285
  30
41.75
  11
588213.671875
  21
6641872.86133
  31
40.5
  12
588213.902344
  22
6641873.10022
  32
40.5
  13
588213.902344
  23
6641873.10022
  33
40.5
   0
3DFACE
   8
Baron schakt
  10
588214.200195
  20
6641873.40125
  30
41.75
  11
588213.854492
  21
6641873.04285
  31
41.75
  12
588213.902344
  22
6641873.10022
  32
40.5
  13
588213.902344
  23
6641873.10022
  33
40.5
   0
3DFACE
   8
Baron schakt
  10
588213.638672
  20
6641872.90625
  30
41.75
  11
588213.671875
  21
6641872.86133
  31
40.5
  12
588213.854492
  22
6641873.04285
  32
41.75
  13
588213.854492
  23
6641873.04285
  33
41.75
   0
3DFACE
   8
Baron schakt
  10
588213.241211
  20
6641872.58801
  30
40.5
  11
588213.671875
  21
6641872.86133
  31
40.5
  12
588213.638672
  22
6641872.90625
  32
41.75
  13
588213.638672
  23
6641872.90625
  33
41.75
   0
3DFACE
   8
Baron schakt
  10
588213.241211
  20
6641872.58801
  30
40.5
  11
588213.490234
  21
6641872.67969
  31
39.25
  12
588213.671875
  22
6641872.86133
  32
40.5
  13
588213.671875
  23
6641872.86133
  33
40.5
   0
3DFACE
   8
Baron schakt
  10
588214.036133
  20
6641873.22437
  30
43
  11
588213.854492
  21
6641873.04285
  31
41.75
  12
588214.200195
  22
6641873.40125
  32
41.75
  13
588214.200195
  23
6641873.40125
  33
41.75
   0
3DFACE
   8
Baron schakt
  10
588214.49707
  20
6641873.70227
  30
43
  11
588214.036133
  21
6641873.22437
  31
43
  12
588214.200195
  22
6641873.40125
  32
41.75
  13
588214.200195
  23
6641873.40125
  33
41.75
   0
3DFACE
   8
Baron schakt
  10
588214.49707
  20
6641873.70227
  30
43
  11
588214.200195
  21
6641873.40125
  31
41.75
  12
588214.267578
  22
6641873.64673
  32
41.7500305176
  13
588214.267578
  23
6641873.64673
  33
41.7500305176
   0
3DFACE
   8
Baron schakt
  10
588214.458008
  20
6641874.36377
  30
42.9999427795
  11
588214.036133
  21
6641873.22437
  31
43
  12
588214.49707
  22
6641873.70227
  32
43
  13
588214.49707
  23
6641873.70227
  33
43
   0
3DFACE
   8
Baron schakt
  10
588214.49707
  20
6641873.70227
  30
43
  11
588214.267578
  21
6641873.64673
  31
41.7500305176
  12
588214.238281
  22
6641874.14282
  32
41.7499885559
  13
588214.238281
  23
6641874.14282
  33
41.7499885559
   0
3DFACE
   8
Baron schakt
  10
588214.200195
  20
6641873.40125
  30
41.75
  11
588214.037109
  21
6641873.59106
  31
40.5000610352
  12
588214.267578
  22
6641873.64673
  32
41.7500305176
  13
588214.267578
  23
6641873.64673
  33
41.7500305176
   0
3DFACE
   8
Baron schakt
  10
588214.458008
  20
6641874.36377
  30
42.9999427795
  11
588214.238281
  21
6641874.14282
  31
41.7499885559
  12
588214.160156
  22
6641874.32776
  32
41.7499885559
  13
588214.160156
  23
6641874.32776
  33
41.7499885559
   0
3DFACE
   8
Baron schakt
  10
588214.160156
  20
6641874.32776
  30
41.7499885559
  11
588214.238281
  21
6641874.14282
  31
41.7499885559
  12
588213.863281
  22
6641874.29175
  32
40.5000305176
  13
588213.863281
  23
6641874.29175
  33
40.5000305176
   0
3DFACE
   8
Baron schakt
  10
588214.458008
  20
6641874.36377
  30
42.9999427795
  11
588214.160156
  21
6641874.32776
  31
41.7499885559
  12
588213.874023
  22
6641874.98706
  32
41.7500610352
  13
588213.874023
  23
6641874.98706
  33
41.7500610352
   0
3DFACE
   8
Baron schakt
  10
588213.874023
  20
6641874.98706
  30
41.7500610352
  11
588214.160156
  21
6641874.32776
  31
41.7499885559
  12
588213.671875
  22
6641874.7312
  32
40.5000801086
  13
588213.671875
  23
6641874.7312
  33
40.5000801086
   0
3DFACE
   8
Baron schakt
  10
588214.076172
  20
6641875.2428
  30
43.000038147
  11
588214.458008
  21
6641874.36377
  31
42.9999427795
  12
588213.874023
  22
6641874.98706
  32
41.7500610352
  13
588213.874023
  23
6641874.98706
  33
41.7500610352
   0
3DFACE
   8
Baron schakt
  10
588214.076172
  20
6641875.2428
  30
43.000038147
  11
588213.874023
  21
6641874.98706
  31
41.7500610352
  12
588213.293945
  22
6641875.21594
  32
41.7500305176
  13
588213.293945
  23
6641875.21594
  33
41.7500305176
   0
3DFACE
   8
Baron schakt
  10
588214.076172
  20
6641875.2428
  30
43.000038147
  11
588213.302734
  21
6641875.5481
  31
43
  12
588214.458008
  22
6641874.36377
  32
42.9999427795
  13
588214.458008
  23
6641874.36377
  33
42.9999427795
   0
3DFACE
   8
Baron schakt
  10
588213.302734
  20
6641875.5481
  30
43
  11
588214.076172
  21
6641875.2428
  31
43.000038147
  12
588213.293945
  22
6641875.21594
  32
41.7500305176
  13
588213.293945
  23
6641875.21594
  33
41.7500305176
   0
3DFACE
   8
Baron schakt
  10
588213.302734
  20
6641875.5481
  30
43
  11
588213.293945
  21
6641875.21594
  31
41.7500305176
  12
588213.094727
  22
6641875.41162
  32
41.7500305176
  13
588213.094727
  23
6641875.41162
  33
41.7500305176
   0
3DFACE
   8
Baron schakt
  10
588213.293945
  20
6641875.21594
  30
41.7500305176
  11
588212.886719
  21
6641875.27515
  31
40.5000610352
  12
588213.094727
  22
6641875.41162
  32
41.7500305176
  13
588213.094727
  23
6641875.41162
  33
41.7500305176
   0
3DFACE
   8
Baron schakt
  10
588213.094727
  20
6641875.41162
  30
41.7500305176
  11
588212.886719
  21
6641875.27515
  31
40.5000610352
  12
588212.964844
  22
6641875.36548
  32
41.75
  13
588212.964844
  23
6641875.36548
  33
41.75
   0
3DFACE
   8
Baron schakt
  10
588213.285156
  20
6641874.88379
  30
40.5000610352
  11
588212.886719
  21
6641875.27515
  31
40.5000610352
  12
588213.293945
  22
6641875.21594
  32
41.7500305176
  13
588213.293945
  23
6641875.21594
  33
41.7500305176
   0
3DFACE
   8
Baron schakt
  10
588213.293945
  20
6641875.21594
  30
41.7500305176
  11
588213.874023
  21
6641874.98706
  31
41.7500610352
  12
588213.285156
  22
6641874.88379
  32
40.5000610352
  13
588213.285156
  23
6641874.88379
  33
40.5000610352
   0
3DFACE
   8
Baron schakt
  10
588213.285156
  20
6641874.88379
  30
40.5000610352
  11
588212.679688
  21
6641875.13855
  31
39.2500915527
  12
588212.886719
  22
6641875.27515
  32
40.5000610352
  13
588212.886719
  23
6641875.27515
  33
40.5000610352
   0
3DFACE
   8
Baron schakt
  10
588212.886719
  20
6641875.27515
  30
40.5000610352
  11
588212.679688
  21
6641875.13855
  31
39.2500915527
  12
588212.626953
  22
6641875.18274
  32
40.5
  13
588212.626953
  23
6641875.18274
  33
40.5
   0
3DFACE
   8
Baron schakt
  10
588213.276367
  20
6641874.55176
  30
39.2500915527
  11
588212.679688
  21
6641875.13855
  31
39.2500915527
  12
588213.285156
  22
6641874.88379
  32
40.5000610352
  13
588213.285156
  23
6641874.88379
  33
40.5000610352
   0
3DFACE
   8
Baron schakt
  10
588213.285156
  20
6641874.88379
  30
40.5000610352
  11
588213.671875
  21
6641874.7312
  31
40.5000801086
  12
588213.276367
  22
6641874.55176
  32
39.2500915527
  13
588213.276367
  23
6641874.55176
  33
39.2500915527
   0
3DFACE
   8
Baron schakt
  10
588212.679688
  20
6641875.13855
  30
39.2500915527
  11
588213.276367
  21
6641874.55176
  31
39.2500915527
  12
588212.47168
  22
6641875.00208
  32
38.0001220703
  13
588212.47168
  23
6641875.00208
  33
38.0001220703
   0
3DFACE
   8
Baron schakt
  10
588213.276367
  20
6641874.55176
  30
39.2500915527
  11
588213.267578
  21
6641874.2196
  31
38.0001220703
  12
588212.47168
  22
6641875.00208
  32
38.0001220703
  13
588212.47168
  23
6641875.00208
  33
38.0001220703
   0
3DFACE
   8
Baron schakt
  10
588212.679688
  20
6641875.13855
  30
39.2500915527
  11
588212.47168
  21
6641875.00208
  31
38.0001220703
  12
588211.952148
  22
6641874.81738
  32
38
  13
588211.952148
  23
6641874.81738
  33
38
   0
3DFACE
   8
Baron schakt
  10
588212.290039
  20
6641875
  30
39.25
  11
588212.679688
  21
6641875.13855
  31
39.2500915527
  12
588211.952148
  22
6641874.81738
  32
38
  13
588211.952148
  23
6641874.81738
  33
38
   0
3DFACE
   8
Baron schakt
  10
588213.276367
  20
6641874.55176
  30
39.2500915527
  11
588213.469727
  21
6641874.47534
  31
39.2500991821
  12
588213.267578
  22
6641874.2196
  32
38.0001220703
  13
588213.267578
  23
6641874.2196
  33
38.0001220703
   0
3DFACE
   8
Baron schakt
  10
588213.276367
  20
6641874.55176
  30
39.2500915527
  11
588213.671875
  21
6641874.7312
  31
40.5000801086
  12
588213.469727
  22
6641874.47534
  32
39.2500991821
  13
588213.469727
  23
6641874.47534
  33
39.2500991821
   0
3DFACE
   8
Baron schakt
  10
588213.469727
  20
6641874.47534
  30
39.2500991821
  11
588213.671875
  21
6641874.7312
  31
40.5000801086
  12
588213.863281
  22
6641874.29175
  32
40.5000305176
  13
588213.863281
  23
6641874.29175
  33
40.5000305176
   0
3DFACE
   8
Baron schakt
  10
588213.671875
  20
6641874.7312
  30
40.5000801086
  11
588214.160156
  21
6641874.32776
  31
41.7499885559
  12
588213.863281
  22
6641874.29175
  32
40.5000305176
  13
588213.863281
  23
6641874.29175
  33
40.5000305176
   0
3DFACE
   8
Baron schakt
  10
588213.469727
  20
6641874.47534
  30
39.2500991821
  11
588213.863281
  21
6641874.29175
  31
40.5000305176
  12
588213.56543
  22
6641874.25562
  32
39.2500762939
  13
588213.56543
  23
6641874.25562
  33
39.2500762939
   0
3DFACE
   8
Baron schakt
  10
588213.874023
  20
6641874.98706
  30
41.7500610352
  11
588213.671875
  21
6641874.7312
  31
40.5000801086
  12
588213.285156
  22
6641874.88379
  32
40.5000610352
  13
588213.285156
  23
6641874.88379
  33
40.5000610352
   0
3DFACE
   8
Baron schakt
  10
588212.886719
  20
6641875.27515
  30
40.5000610352
  11
588212.626953
  21
6641875.18274
  31
40.5
  12
588212.964844
  22
6641875.36548
  32
41.75
  13
588212.964844
  23
6641875.36548
  33
41.75
   0
3DFACE
   8
Baron schakt
  10
588214.238281
  20
6641874.14282
  30
41.7499885559
  11
588214.017578
  21
6641873.92188
  31
40.5000305176
  12
588213.863281
  22
6641874.29175
  32
40.5000305176
  13
588213.863281
  23
6641874.29175
  33
40.5000305176
   0
3DFACE
   8
Baron schakt
  10
588214.017578
  20
6641873.92188
  30
40.5000305176
  11
588214.238281
  21
6641874.14282
  31
41.7499885559
  12
588214.267578
  22
6641873.64673
  32
41.7500305176
  13
588214.267578
  23
6641873.64673
  33
41.7500305176
   0
3DFACE
   8
Baron schakt
  10
588211.500977
  20
6641872.35437
  30
40.5
  11
588211.408203
  21
6641872.63086
  31
40.5
  12
588211.202148
  22
6641872.2821
  32
39.25
  13
588211.202148
  23
6641872.2821
  33
39.25
   0
3DFACE
   8
Baron schakt
  10
588211.753906
  20
6641872.56494
  30
41.75
  11
588211.408203
  21
6641872.63086
  31
40.5
  12
588211.500977
  22
6641872.35437
  32
40.5
  13
588211.500977
  23
6641872.35437
  33
40.5
   0
3DFACE
   8
Baron schakt
  10
588211.500977
  20
6641872.35437
  30
40.5
  11
588211.248047
  21
6641872.1438
  31
39.25
  12
588211.850586
  22
6641872.07861
  32
40.5
  13
588211.850586
  23
6641872.07861
  33
40.5
   0
ENDSEC
   0
EOF
